<?xml version="1.0" encoding="UTF-8"?>
<svg version="1.1" xmlns="http://www.w3.org/2000/svg" width="2362" height="1457">
<path d="M0 0 C3.38207389 1.59536872 6.62284099 3.40653173 9.875 5.25 C11.85385583 6.35081937 13.8330337 7.45105999 15.8125 8.55078125 C16.8334375 9.12135254 17.854375 9.69192383 18.90625 10.27978516 C23.87293072 13.04140387 28.8742751 15.73817516 33.875 18.4375 C35.89333822 19.52974643 37.9115668 20.62219548 39.9296875 21.71484375 C40.93225586 22.25737793 41.93482422 22.79991211 42.96777344 23.35888672 C47.9792576 26.07122139 52.98955924 28.78573853 58 31.5 C59.46083008 32.29120239 59.46083008 32.29120239 60.95117188 33.09838867 C66.2258142 35.95519685 71.49994191 38.81295051 76.7734375 41.671875 C78.43052734 42.5700293 78.43052734 42.5700293 80.12109375 43.48632812 C82.2514442 44.64101387 84.38165786 45.79595205 86.51171875 46.95117188 C87.46433594 47.46744141 88.41695312 47.98371094 89.3984375 48.515625 C90.24067871 48.97227539 91.08291992 49.42892578 91.95068359 49.89941406 C93.29029719 50.61885391 94.63995344 51.31997672 96 52 C96.33 40.12 96.66 28.24 97 16 C129.34 16 161.68 16 195 16 C195.33 43.72 195.66 71.44 196 100 C207.06807073 105.82530038 218.13412929 111.64340383 229.25 117.375 C231.75811597 118.66998585 234.26584168 119.96572601 236.7734375 121.26171875 C237.6966832 121.73884056 237.6966832 121.73884056 238.63858032 122.2256012 C248.10758843 127.12121412 257.55278264 132.06251728 267 137 C280.30596343 143.95167749 293.62249581 150.88241898 306.95214844 157.78857422 C315.07178084 161.9966519 323.18226857 166.2219277 331.28808594 170.45654297 C338.76724231 174.36180686 346.25767767 178.24506603 353.75 182.125 C361.30489099 186.03778854 368.85239556 189.96297958 376.375 193.9375 C384.30976471 198.12898868 392.27707727 202.25670372 400.25 206.375 C412.85060494 212.88376537 425.43077348 219.43083404 438 226 C451.30596343 232.95167749 464.62249581 239.88241898 477.95214844 246.78857422 C486.07178084 250.9966519 494.18226857 255.2219277 502.28808594 259.45654297 C509.76724231 263.36180686 517.25767767 267.24506603 524.75 271.125 C532.30489099 275.03778854 539.85239556 278.96297958 547.375 282.9375 C555.30976471 287.12898868 563.27707727 291.25670372 571.25 295.375 C583.85060494 301.88376537 596.43077348 308.43083404 609 315 C622.30596343 321.95167749 635.62249581 328.88241898 648.95214844 335.78857422 C657.07178084 339.9966519 665.18226857 344.2219277 673.28808594 348.45654297 C680.76724231 352.36180686 688.25767767 356.24506603 695.75 360.125 C703.30489099 364.03778854 710.85239556 367.96297958 718.375 371.9375 C726.30976471 376.12898868 734.27707727 380.25670372 742.25 384.375 C754.85060494 390.88376537 767.43077348 397.43083404 780 404 C793.30596343 410.95167749 806.62249581 417.88241898 819.95214844 424.78857422 C828.07178084 428.9966519 836.18226857 433.2219277 844.28808594 437.45654297 C851.76724231 441.36180686 859.25767767 445.24506603 866.75 449.125 C874.30489099 453.03778854 881.85239556 456.96297958 889.375 460.9375 C897.30976471 465.12898868 905.27707727 469.25670372 913.25 473.375 C925.85060494 479.88376537 938.43077348 486.43083404 951 493 C964.30596343 499.95167749 977.62249581 506.88241898 990.95214844 513.78857422 C999.07178084 517.9966519 1007.18226857 522.2219277 1015.28808594 526.45654297 C1022.76724223 530.36180682 1030.25766624 534.24508818 1037.75 538.125 C1046.60604419 542.71137937 1055.44912681 547.32081996 1064.26660156 551.98095703 C1064.97139648 552.35333496 1065.67619141 552.72571289 1066.40234375 553.109375 C1067.30714478 553.58842285 1067.30714478 553.58842285 1068.23022461 554.07714844 C1070.14244893 555.07428017 1072.06862891 556.04055668 1074 557 C1074 557.66 1074 558.32 1074 559 C1065.42113247 556.28784681 1057.10524939 552.94695106 1048.75 549.625 C1047.08374655 548.96462242 1045.41740252 548.30447339 1043.75097656 547.64453125 C1040.11340014 546.20348647 1036.47641602 544.76095974 1032.83984375 543.31738281 C1026.81118083 540.92448694 1020.78070007 538.53619371 1014.75 536.1484375 C989.05226753 525.97265173 963.3605726 515.78162662 937.66821289 505.59228516 C914.96224831 496.58749514 892.25359784 487.58949054 869.54443359 478.59277344 C859.6353286 474.66703765 849.72644163 470.74075161 839.8175354 466.81451416 C834.29503226 464.62632091 828.77251545 462.43816218 823.25 460.25 C821.0416666 459.37500017 818.83333327 458.50000017 816.625 457.625 C815.531875 457.191875 814.43875 456.75875 813.3125 456.3125 C750.37499992 431.37499997 750.37499992 431.37499997 747.06277466 430.06260681 C744.85352764 429.18724613 742.64427878 428.31189009 740.43502808 427.4365387 C734.92815908 425.25459517 729.42132167 423.07257197 723.91455078 420.89038086 C713.81185414 416.88703633 703.7088973 412.88435368 693.60479736 408.884552 C688.97216661 407.05062498 684.33971564 405.21624409 679.70727539 403.38183594 C677.55713577 402.53053881 675.40691394 401.67944927 673.2565918 400.82861328 C654.15091266 393.26880112 635.0776511 385.63106044 616 378 C615.67 419.91 615.34 461.82 615 505 C654.6 505 694.2 505 735 505 C735 516.55 735 528.1 735 540 C695.4 540 655.8 540 615 540 C615 607.98 615 675.96 615 746 C668.13 746 721.26 746 776 746 C776 763.82 776 781.64 776 800 C688.22 800 600.44 800 510 800 C509.505 571.31 509.505 571.31 509 338 C477.5593428 324.40215775 477.5593428 324.40215775 446.0625 310.9375 C443.79942963 309.97480721 441.53641022 309.01199459 439.2734375 308.04907227 C434.58238994 306.05308716 429.89112946 304.05760381 425.19970703 302.0625 C414.1454286 297.36100995 403.09371812 292.65349006 392.04196167 287.94607544 C388.59065296 286.47611048 385.13921305 285.00645399 381.68774414 283.53686523 C379.55224296 282.62744877 377.41674476 281.7180253 375.28125 280.80859375 C374.34381454 280.40950806 373.40637909 280.01042236 372.4405365 279.59924316 C364.95531218 276.41110514 357.47813165 273.20491356 350 270 C350 347.55 350 425.1 350 505 C389.93 505 429.86 505 471 505 C471 516.55 471 528.1 471 540 C431.07 540 391.14 540 350 540 C350 625.8 350 711.6 350 800 C316.01 800 282.02 800 247 800 C246.67 610.91 246.34 421.82 246 227 C229.5 220.4 213 213.8 196 207 C186.64342107 203.23498313 177.28813226 199.4671913 167.9375 195.6875 C165.56408197 194.72891539 163.19062691 193.77042246 160.81713867 192.81201172 C155.94989119 190.84654116 151.08279344 188.88070059 146.21582031 186.91455078 C135.58886375 182.62179937 124.96016945 178.33335476 114.33148193 174.04489136 C110.82265987 172.62909945 107.31391053 171.21312744 103.80517578 169.79711914 C91.71033505 164.91629275 79.61451374 160.0379123 67.51722145 155.16316605 C65.41084579 154.31435198 63.30450011 153.46546355 61.19816589 152.61654663 C60.50682462 152.3379159 59.81548334 152.05928516 59.10319233 151.77221107 C57.71456428 151.21255121 56.32593754 150.65288808 54.93731213 150.09322166 C50.95004175 148.48626578 46.96257757 146.87979229 42.97490597 145.27383232 C41.09935171 144.51831282 39.22400495 143.76228003 37.34867859 143.00619507 C34.95104734 142.04024681 32.55271822 141.0760287 30.15364075 140.11367798 C24.58783425 137.87626555 19.04228598 135.60492856 13.52880859 133.24121094 C12.51985031 132.81319183 11.51089203 132.38517273 10.47135925 131.94418335 C8.60273238 131.14875201 6.73906998 130.34150518 4.88179016 129.51992798 C-1.65136627 126.75223089 -5.00993349 126.83411773 -11.71484375 129.44848633 C-13.12548902 130.06935371 -14.53286175 130.69769085 -15.9375 131.33203125 C-16.71408966 131.67582321 -17.49067932 132.01961517 -18.290802 132.37382507 C-19.97744941 133.12137576 -21.66271486 133.87205056 -23.34674072 134.62548828 C-26.97819023 136.25012148 -30.61624644 137.85970694 -34.25393677 139.4703064 C-36.18142357 140.32388333 -38.10856167 141.17824805 -40.03536987 142.03335571 C-51.03964868 146.91445145 -62.08175545 151.70788931 -73.125 156.5 C-75.89394887 157.70253876 -78.66279337 158.90531739 -81.43157959 160.10823059 C-83.21700538 160.8835577 -85.00268629 161.6582976 -86.78863525 162.43241882 C-91.66770076 164.54795418 -96.54121778 166.6754307 -101.40917969 168.81640625 C-102.46668427 169.2801062 -103.52418884 169.74380615 -104.61373901 170.22155762 C-106.66364982 171.12068446 -108.71230503 172.02268063 -110.759552 172.92785645 C-111.6779184 173.33000366 -112.59628479 173.73215088 -113.54248047 174.14648438 C-114.76328812 174.68420471 -114.76328812 174.68420471 -116.00875854 175.23278809 C-118 176 -118 176 -120 176 C-120 356.51 -120 537.02 -120 723 C-58.62 723 2.76 723 66 723 C66 748.41 66 773.82 66 800 C-29.37 800 -124.74 800 -223 800 C-223 714.2 -223 628.4 -223 540 C-233.89 540 -244.78 540 -256 540 C-256 566.4 -256 592.8 -256 620 C-293.95 620 -331.9 620 -371 620 C-371 593.6 -371 567.2 -371 540 C-504.65 540 -638.3 540 -776 540 C-776 528.45 -776 516.9 -776 505 C-764.35950625 498.71037838 -752.62181849 492.89623693 -740.59667969 487.38208008 C-730.49060968 482.73681278 -720.48974119 477.88971946 -710.5 473 C-698.57075485 467.16397375 -686.60230379 461.44899753 -674.53515625 455.90234375 C-665.12696055 451.56176903 -655.80962015 447.04728896 -646.5 442.5 C-636.08801567 437.41426066 -625.65418004 432.40222837 -615.125 427.5625 C-604.1729651 422.52737544 -593.32761121 417.29606035 -582.5 412 C-570.57029558 406.16487779 -558.60233349 400.44901118 -546.53515625 394.90234375 C-537.12696055 390.56176903 -527.80962015 386.04728896 -518.5 381.5 C-508.08801567 376.41426066 -497.65418004 371.40222837 -487.125 366.5625 C-476.17295928 361.52737276 -465.32768957 356.29590991 -454.5 351 C-442.3644245 345.06496013 -430.19731723 339.22248426 -417.91992188 333.5859375 C-416.91509766 333.12445312 -415.91027344 332.66296875 -414.875 332.1875 C-413.86366501 331.73869476 -412.85233002 331.28988953 -411.81034851 330.82748413 C-409.0360015 329.55043484 -406.43723586 328.09877755 -403.81440735 326.53555298 C-388.95717473 318.06270333 -375.0464164 317.6400437 -358.32770538 317.98719788 C-355.06970149 318.04522447 -351.81180168 318.0468857 -348.55334473 318.05395508 C-339.09760029 318.1059074 -329.64250061 318.24551869 -320.1875 318.375 C-299.005625 318.58125 -277.82375 318.7875 -256 319 C-256 380.38 -256 441.76 -256 505 C-245.11 505 -234.22 505 -223 505 C-223.33 411.28 -223.66 317.56 -224 221 C-238.19 226.94 -252.38 232.88 -267 239 C-289.07589286 248.24107143 -289.07589286 248.24107143 -296.95622253 251.53952026 C-303.94926657 254.46663077 -310.94204303 257.39437745 -317.93417358 260.32366943 C-338.62874388 268.99343347 -359.33174896 277.64256726 -380.04486084 286.26794434 C-394.30630499 292.20703983 -408.56282255 298.15772622 -422.8125 304.125 C-423.69217438 304.49336975 -424.57184875 304.8617395 -425.47817993 305.24127197 C-431.65236584 307.82692779 -437.82622326 310.4133674 -444 313 C-451.06226902 315.95888498 -458.12469258 318.91740037 -465.1875 321.875 C-466.06677155 322.24320862 -466.94604309 322.61141724 -467.85195923 322.99078369 C-483.24201671 329.43471897 -498.64228943 335.85398843 -514.04486084 342.26794434 C-528.30630499 348.20703983 -542.56282255 354.15772622 -556.8125 360.125 C-557.69217438 360.49336975 -558.57184875 360.8617395 -559.47817993 361.24127197 C-565.65236584 363.82692779 -571.82622326 366.4133674 -578 369 C-585.06226902 371.95888498 -592.12469258 374.91740037 -599.1875 377.875 C-600.06677155 378.24320862 -600.94604309 378.61141724 -601.85195923 378.99078369 C-617.24201671 385.43471897 -632.64228943 391.85398843 -648.04486084 398.26794434 C-667.60859632 406.41514823 -687.15920269 414.59344833 -706.70556641 422.78222656 C-716.53407172 426.89958872 -726.36414251 431.0132127 -736.19390869 435.12756348 C-738.8857923 436.25429065 -741.57766582 437.38104191 -744.26953125 438.5078125 C-745.15741333 438.87946533 -746.04529541 439.25111816 -746.96008301 439.6340332 C-752.28510556 441.86313491 -757.60978162 444.09306196 -762.93417358 446.32366943 C-783.62874388 454.99343347 -804.33174896 463.64256726 -825.04486084 472.26794434 C-843.69164135 480.03328766 -862.32690946 487.82587113 -880.95706177 495.63101196 C-887.49544473 498.37019181 -894.03466437 501.1073681 -900.57421875 503.84375 C-902.50610444 504.65217877 -904.43798922 505.46060974 -906.36987305 506.26904297 C-909.13087215 507.42442782 -911.89188912 508.57976985 -914.65298462 509.73492432 C-916.35657183 510.44767284 -918.06007969 511.16061109 -919.76350403 511.87374878 C-921.4030624 512.55971614 -923.04301773 513.2447356 -924.68339539 513.92874146 C-928.93393958 515.70360791 -933.17238349 517.50246956 -937.3984375 519.33496094 C-938.27467773 519.7121225 -939.15091797 520.08928406 -940.05371094 520.47787476 C-941.73423972 521.20207623 -943.41211459 521.93247594 -945.08691406 522.66983032 C-947.03364028 523.50559938 -949.01451153 524.26102203 -951 525 C-951.66 524.67 -952.32 524.34 -953 524 C-946.41718587 519.78350506 -939.65596796 515.96334366 -932.8125 512.1875 C-931.6236013 511.52947142 -930.43480145 510.87126419 -929.24609375 510.21289062 C-925.49917214 508.13870522 -921.74980319 506.06897025 -918 504 C-916.78173718 503.32763871 -915.56347545 502.65527545 -914.34521484 501.98291016 C-909.5110778 499.31527309 -904.67651562 496.64840864 -899.84106445 493.9831543 C-891.71824524 489.50512991 -883.60592161 485.00856296 -875.5 480.5 C-865.5672747 474.97535771 -855.62101873 469.47586248 -845.66699219 463.98974609 C-836.93519182 459.17677773 -828.21331002 454.34639609 -819.5 449.5 C-809.5672747 443.97535771 -799.62101873 438.47586248 -789.66699219 432.98974609 C-780.93519182 428.17677773 -772.21331002 423.34639609 -763.5 418.5 C-753.5672747 412.97535771 -743.62101873 407.47586248 -733.66699219 401.98974609 C-724.93519182 397.17677773 -716.21331002 392.34639609 -707.5 387.5 C-697.5672747 381.97535771 -687.62101873 376.47586248 -677.66699219 370.98974609 C-668.93519182 366.17677773 -660.21331002 361.34639609 -651.5 356.5 C-641.5672747 350.97535771 -631.62101873 345.47586248 -621.66699219 339.98974609 C-612.93519182 335.17677773 -604.21331002 330.34639609 -595.5 325.5 C-585.5672747 319.97535771 -575.62101873 314.47586248 -565.66699219 308.98974609 C-556.93519182 304.17677773 -548.21331002 299.34639609 -539.5 294.5 C-529.5672747 288.97535771 -519.62101873 283.47586248 -509.66699219 277.98974609 C-500.93519182 273.17677773 -492.21331002 268.34639609 -483.5 263.5 C-473.5672747 257.97535771 -463.62101873 252.47586248 -453.66699219 246.98974609 C-444.93519182 242.17677773 -436.21331002 237.34639609 -427.5 232.5 C-417.5672747 226.97535771 -407.62101873 221.47586248 -397.66699219 215.98974609 C-388.93519182 211.17677773 -380.21331002 206.34639609 -371.5 201.5 C-361.5672747 195.97535771 -351.62101873 190.47586248 -341.66699219 184.98974609 C-332.93519182 180.17677773 -324.21331002 175.34639609 -315.5 170.5 C-305.5672747 164.97535771 -295.62101873 159.47586248 -285.66699219 153.98974609 C-276.93519182 149.17677773 -268.21331002 144.34639609 -259.5 139.5 C-249.5672747 133.97535771 -239.62101873 128.47586248 -229.66699219 122.98974609 C-220.93519182 118.17677773 -212.21331002 113.34639609 -203.5 108.5 C-193.5672747 102.97535771 -183.62101873 97.47586248 -173.66699219 91.98974609 C-164.93519182 87.17677773 -156.21331002 82.34639609 -147.5 77.5 C-137.5672747 71.97535771 -127.62101873 66.47586248 -117.66699219 60.98974609 C-108.93519182 56.17677773 -100.21331002 51.34639609 -91.5 46.5 C-82.17698024 41.31447964 -72.84291787 36.14953791 -63.5 31 C-55.05100821 26.34260573 -46.60498472 21.68000019 -38.1706543 16.99609375 C-35.88022952 15.72461662 -33.58875416 14.45502984 -31.29614258 13.1875 C-26.48560938 10.52269555 -21.69377302 7.84145547 -16.96875 5.02734375 C-16.23180908 4.59349365 -15.49486816 4.15964355 -14.7355957 3.71264648 C-13.42861782 2.93880465 -12.12928922 2.15179158 -10.84057617 1.34790039 C-6.76174118 -1.05591797 -4.4979441 -1.47185472 0 0 Z M-378.4296875 368.1484375 C-379.09348419 368.47985748 -379.75728088 368.81127747 -380.44119263 369.15274048 C-381.86249242 369.86304859 -383.28328269 370.57437695 -384.70361328 371.28662109 C-386.80226222 372.33854115 -388.90292194 373.38634771 -391.00390625 374.43359375 C-398.48940339 378.17469038 -405.92543441 381.99681846 -413.3203125 385.9140625 C-423.9608981 391.54728173 -434.73500088 396.90112403 -445.52050781 402.25 C-454.54443736 406.72872424 -463.53686358 411.24894004 -472.4375 415.96875 C-483.41358932 421.78829876 -494.53779353 427.30144371 -505.66601562 432.82275391 C-514.99516118 437.45481499 -524.29784187 442.11963141 -533.5 447 C-544.45484059 452.8099045 -555.55865885 458.31179612 -566.66601562 463.82275391 C-575.99321659 468.45384947 -585.29326263 473.11816866 -594.4921875 478 C-601.13736438 481.52654037 -607.82835963 484.94338185 -614.5703125 488.28125 C-615.44113464 488.71272339 -616.31195679 489.14419678 -617.20916748 489.58874512 C-620.76357697 491.34776589 -624.31934054 493.10395672 -627.87841797 494.85351562 C-630.52835811 496.15749187 -633.17457035 497.46878202 -635.8203125 498.78125 C-636.63049835 499.17703247 -637.4406842 499.57281494 -638.27542114 499.98059082 C-642.31980372 501.73245892 -642.31980372 501.73245892 -645 505 C-554.58 505 -464.16 505 -371 505 C-371 458.8 -371 412.6 -371 365 C-373.46720104 365 -376.2194545 367.03979923 -378.4296875 368.1484375 Z " fill="#FEFEFE" transform="translate(1100,222)"/>
<path d="M0 0 C32.34 0 64.68 0 98 0 C98 177.54 98 355.08 98 538 C65.66 538 33.32 538 0 538 C0 360.46 0 182.92 0 0 Z " fill="#FFFFFF" transform="translate(1197,484)"/>
<path d="M0 0 C1.00470337 -0.00511093 2.00940674 -0.01022186 3.04455566 -0.01548767 C6.33665066 -0.02928666 9.62853398 -0.02843407 12.9206543 -0.02612305 C15.22934546 -0.03001556 17.53803592 -0.03435137 19.84672546 -0.03910828 C24.67567266 -0.04654988 29.50454673 -0.04629435 34.33349609 -0.04101562 C40.49307666 -0.03522674 46.65235597 -0.05214832 52.81188679 -0.0753603 C57.57768985 -0.09015982 62.34342142 -0.09096084 67.10924339 -0.08785057 C69.37882267 -0.08836075 71.64840627 -0.09354098 73.91796303 -0.10366249 C105.68139481 -0.22793792 105.68139481 -0.22793792 117.43237305 9.2746582 C123.15502802 15.44111091 124.58128452 20.2140663 124.609375 28.56640625 C124.6159462 29.4123082 124.6225174 30.25821014 124.62928772 31.12974548 C124.64901312 33.93195689 124.66068279 36.73411466 124.6706543 39.53637695 C124.67472982 40.49450602 124.67880535 41.45263508 124.68300438 42.43979836 C124.70386375 47.51292327 124.718165 52.58602116 124.72753906 57.65917969 C124.73859191 62.89021823 124.77297929 68.12083004 124.81271076 73.35171795 C124.83890316 77.38129955 124.84723333 81.41077999 124.85082054 85.44043922 C124.85568117 87.36807951 124.8672802 89.29571544 124.88585854 91.22327232 C124.91030163 93.92783398 124.90927541 96.63129836 124.90234375 99.3359375 C124.91515381 100.12532715 124.92796387 100.9147168 124.94116211 101.72802734 C124.8799909 108.30963303 122.81030718 113.33004489 118.6784668 118.4465332 C104.16629027 131.10942589 82.68126046 129.58756999 64.5222168 129.5402832 C62.65670217 129.54163582 60.79118788 129.54358126 58.92567444 129.54608154 C55.0456298 129.54900409 51.16567822 129.54482834 47.28564453 129.53540039 C42.3585848 129.52399964 37.43174293 129.53058779 32.50469112 129.54254532 C28.66181348 129.54983536 24.81898595 129.54744366 20.97610664 129.54228973 C19.16116878 129.54097331 17.34622608 129.54252884 15.53129387 129.54724884 C-22.98266438 129.62548811 -22.98266438 129.62548811 -35.75512695 117.28637695 C-41.66062712 110.73178087 -41.68823579 103.10281614 -41.71289062 94.64624023 C-41.71624924 93.91840332 -41.71960785 93.19056641 -41.72306824 92.44067383 C-41.73250202 90.05458836 -41.73451744 87.66857362 -41.7355957 85.2824707 C-41.73881328 83.61009697 -41.74217772 81.9377235 -41.74568176 80.26535034 C-41.75165391 76.76698148 -41.75352361 73.26863726 -41.75292969 69.77026367 C-41.75282811 65.30633148 -41.76648396 60.84255851 -41.7837019 56.37866402 C-41.79486579 52.92637417 -41.79684756 49.4741223 -41.79631996 46.02181625 C-41.79749332 44.37692592 -41.8018786 42.7320344 -41.80965233 41.08716202 C-41.90419452 19.0193519 -41.90419452 19.0193519 -35.56762695 11.2746582 C-25.80806018 1.7420581 -13.1488692 -0.0351993 0 0 Z M-13.41445923 22.87995911 C-16.2895059 26.07751385 -16.2731826 28.72340599 -16.21459961 32.82543945 C-16.22336121 33.58037689 -16.2321228 34.33531433 -16.2411499 35.11312866 C-16.26313129 37.60505898 -16.24859731 40.09521031 -16.23168945 42.5871582 C-16.23505799 44.32064148 -16.23991093 46.05412246 -16.2461853 47.78759766 C-16.25355487 51.41925562 -16.24284889 55.05029836 -16.21948242 58.68188477 C-16.19099403 63.33627794 -16.20739763 67.98922966 -16.23734474 72.64356995 C-16.25541579 76.22272598 -16.2496607 79.80154045 -16.23670578 83.38070679 C-16.23337121 85.09671194 -16.2374607 86.81274814 -16.24910355 88.52871704 C-16.26180989 90.92793863 -16.2424423 93.32482899 -16.21459961 95.72387695 C-16.22472076 96.43256927 -16.23484192 97.1412616 -16.24526978 97.87142944 C-16.16718122 101.50483422 -15.82712254 103.00250776 -13.28414917 105.66949463 C-4.05412772 111.1234144 8.28332885 109.56678097 18.65112305 109.5402832 C20.51859589 109.54163299 22.38606839 109.54357612 24.25354004 109.54608154 C28.15351735 109.54901806 32.05340259 109.54478275 35.95336914 109.53540039 C40.92942384 109.52400679 45.90526271 109.53057417 50.88130951 109.54254532 C54.73339436 109.5498038 58.58542881 109.54745774 62.43751526 109.54228973 C64.27136766 109.54096425 66.10522477 109.54256194 67.93907166 109.54724884 C83.08400861 110.15416502 83.08400861 110.15416502 97.14988708 105.66375732 C100.1659516 102.50681476 100.13286594 99.96603708 100.06347656 95.81567383 C100.07063187 95.07048996 100.07778717 94.32530609 100.0851593 93.55754089 C100.10204735 91.09803678 100.08264536 88.64035531 100.0612793 86.1809082 C100.062108 84.4698471 100.06456742 82.75878607 100.06858826 81.04772949 C100.07144631 77.4631349 100.05674496 73.87916513 100.02929688 70.29467773 C99.99521358 65.70096224 100.00123195 61.108364 100.01995945 56.51459503 C100.03053048 52.98177792 100.02159079 49.44922057 100.00657463 45.91642761 C100.00139308 44.22276074 100.00187431 42.52906673 100.00811958 40.83540344 C100.01357325 38.46755695 99.99319447 36.1013071 99.96582031 33.73364258 C99.97234619 33.03430099 99.97887207 32.33495941 99.9855957 31.61442566 C99.91945044 28.24797967 99.65375979 26.55329129 97.53184509 23.88269043 C88.42564378 16.90804878 74.01541579 19.11164769 63.10424805 19.10668945 C61.42571994 19.10346804 59.7471921 19.10010334 58.06866455 19.09660339 C54.56212718 19.09064328 51.05561434 19.08876025 47.54907227 19.08935547 C43.09356577 19.08945688 38.63821937 19.07581223 34.1827507 19.05858326 C30.71825462 19.04737112 27.25379611 19.04543907 23.78928375 19.04596519 C22.14852599 19.04479862 20.50776682 19.04045287 18.86702728 19.03263283 C2.1645361 18.37158918 2.1645361 18.37158918 -13.41445923 22.87995911 Z " fill="#0AA144" transform="translate(1755.567626953125,1107.725341796875)"/>
<path d="M0 0 C2.29532535 -0.00270192 4.59064958 -0.00659012 6.88597107 -0.01159668 C11.67075619 -0.01745759 16.4552404 -0.00903854 21.23999023 0.00976562 C27.33430946 0.03256563 33.42792421 0.01940296 39.52221775 -0.00452423 C44.25381154 -0.01906365 48.98524169 -0.01433926 53.71684074 -0.00401306 C55.9624331 -0.00136891 58.20804094 -0.00453286 60.45361519 -0.01393127 C93.75827177 -0.12278902 93.75827177 -0.12278902 104.99609375 10.53125 C110.1903227 17.03030941 111.14429576 22.43776657 111.1730957 30.64526367 C111.1796669 31.46044464 111.1862381 32.27562561 111.19300842 33.11550903 C111.21269843 35.81007995 111.22439543 38.5045952 111.234375 41.19921875 C111.23845053 42.1220849 111.24252605 43.04495106 111.24672508 43.99578285 C111.2675691 48.88203328 111.28187714 53.76825578 111.29125977 58.65454102 C111.30231107 63.68704239 111.33670103 68.71910002 111.37643147 73.75144482 C111.40264907 77.63351735 111.41095624 81.51548505 111.41454124 85.39763832 C111.41939514 87.25188501 111.43097482 89.10612739 111.44957924 90.96028709 C111.64181555 111.39147338 111.64181555 111.39147338 105.38105774 118.31803894 C91.62751746 131.6626552 69.29797942 129.69204653 51.671875 129.69921875 C49.79778519 129.70244013 47.92369563 129.70580483 46.04960632 129.70930481 C42.13373228 129.71526585 38.21788021 129.71714787 34.30200195 129.71655273 C29.32770378 129.71645136 24.35354913 129.73009173 19.37928486 129.74732494 C15.51066971 129.75854076 11.64208821 129.76046902 7.77345848 129.75994301 C5.94176935 129.7611092 4.11007894 129.76545269 2.27840614 129.77327538 C-35.12475235 129.91805663 -35.12475235 129.91805663 -48.34765625 119.2421875 C-54.22386599 113.17195197 -55.15279001 105.78196497 -55.16503906 97.69262695 C-55.17000397 96.9067067 -55.17496887 96.12078644 -55.18008423 95.31105042 C-55.19467443 92.71386839 -55.20150364 90.11674751 -55.20703125 87.51953125 C-55.21278656 85.70834858 -55.21854425 83.89716593 -55.2243042 82.08598328 C-55.23480614 78.28721839 -55.24065366 74.48847462 -55.24414062 70.68969727 C-55.24961479 65.83887499 -55.27362314 60.9883349 -55.30211258 56.1376009 C-55.32080537 52.39449774 -55.32594815 48.65146154 -55.3274765 44.90831566 C-55.33049005 43.12106984 -55.33847441 41.33382484 -55.35166168 39.54662514 C-55.49380494 18.79668174 -55.49380494 18.79668174 -49.75390625 11.78125 C-48.84640625 11.03875 -47.93890625 10.29625 -47.00390625 9.53125 C-46.07578125 8.685625 -45.14765625 7.84 -44.19140625 6.96875 C-31.70470497 -1.45825948 -14.30741468 -0.05994363 0 0 Z M-29.00390625 25.53125 C-30.48782425 28.499086 -30.13944533 31.17611406 -30.14916992 34.48779297 C-30.15252853 35.20342407 -30.15588715 35.91905518 -30.15934753 36.65637207 C-30.16886813 39.02874474 -30.17080127 41.4010469 -30.171875 43.7734375 C-30.17508708 45.42009511 -30.17845112 47.06675242 -30.18196106 48.71340942 C-30.18795529 52.16848411 -30.18980069 55.62353376 -30.18920898 59.07861328 C-30.18910741 63.50618941 -30.20275374 67.93360502 -30.21998119 72.36114311 C-30.23110006 75.76348609 -30.23312822 79.16579027 -30.23259926 82.56814957 C-30.23377977 84.200426 -30.23820555 85.83270343 -30.24593163 87.46496201 C-30.2557282 89.74872824 -30.25285478 92.03214613 -30.24682617 94.31591797 C-30.24825119 95.61560516 -30.24967621 96.91529236 -30.25114441 98.25436401 C-30.01799158 101.34456351 -29.78987945 103.03562421 -28.00390625 105.53125 C-20.86221388 109.31214596 -13.67388221 109.68139374 -5.67285156 109.67651367 C-4.87019867 109.67987228 -4.06754578 109.6832309 -3.24057007 109.68669128 C-0.60437442 109.69613855 2.03175726 109.69814136 4.66796875 109.69921875 C6.51491318 109.70243603 8.36185736 109.70580046 10.20880127 109.70930481 C14.07540477 109.7152808 17.94198596 109.71714632 21.80859375 109.71655273 C26.73866001 109.71645129 31.66858168 109.73009228 36.59861374 109.74732494 C40.41299076 109.7584998 44.22733345 109.76047025 48.04172516 109.75994301 C49.85800931 109.7611153 51.67429458 109.76549439 53.49056244 109.77327538 C69.44548042 110.67693493 69.44548042 110.67693493 83.74491882 105.41766357 C86.48787042 101.90070333 86.70017877 99.33494737 86.62719727 95.05053711 C86.63435257 94.31496078 86.64150787 93.57938446 86.64888 92.82151794 C86.66573359 90.39990367 86.64638839 87.98014937 86.625 85.55859375 C86.62582893 83.87138211 86.62828922 82.18417055 86.63230896 80.4969635 C86.63516453 76.9654197 86.62048838 73.43451098 86.59301758 69.90307617 C86.55890848 65.37776555 86.56496365 60.85358837 86.58368015 56.32822323 C86.59425041 52.84601908 86.58531265 49.36407852 86.57029533 45.88189888 C86.56511497 44.2133519 86.56559357 42.54477738 86.57184029 40.87623405 C86.5772941 38.54441017 86.55691597 36.21420745 86.52954102 33.88256836 C86.53606689 33.19414856 86.54259277 32.50572876 86.54931641 31.79644775 C86.48536768 28.59134388 86.19657167 26.8032143 84.2752533 24.1967926 C74.65716759 17.16817913 60.15809495 19.36853727 48.7890625 19.36328125 C47.13438388 19.36005882 45.47970553 19.35669404 43.82502747 19.35319519 C40.3715448 19.34724073 36.91808703 19.34535151 33.46459961 19.34594727 C29.07750211 19.34604875 24.69056693 19.33239387 20.3035078 19.31517506 C16.88962597 19.30396231 13.47578227 19.30203087 10.06188393 19.30255699 C8.44624586 19.3013909 6.83060635 19.29704801 5.2149868 19.28922462 C-13.17796916 18.38481388 -13.17796916 18.38481388 -29.00390625 25.53125 Z " fill="#0AA144" transform="translate(323.00390625,1107.46875)"/>
<path d="M0 0 C1.19139587 -0.00029205 2.38279175 -0.00058411 3.61029053 -0.00088501 C6.84520334 0.00026139 10.07993825 0.01022265 13.314816 0.02426291 C16.70737705 0.03685026 20.09994239 0.03794702 23.49252319 0.04031372 C29.90251334 0.04650515 36.31243446 0.06288397 42.72239435 0.0830127 C50.02598418 0.1054449 57.32957749 0.11638346 64.63319325 0.12640357 C79.64401059 0.14725255 94.65475944 0.18279018 109.66552734 0.22705078 C109.66552734 6.49705078 109.66552734 12.76705078 109.66552734 19.22705078 C107.67928093 19.23918106 107.67928093 19.23918106 105.65290833 19.2515564 C93.13343481 19.3292643 80.61406669 19.41706462 68.09473133 19.51457787 C61.65944865 19.56438254 55.22418114 19.61071335 48.78881836 19.64892578 C42.57065972 19.68597928 36.35263308 19.73239225 30.13458824 19.78511429 C27.77014179 19.80355212 25.40566716 19.81869858 23.04117775 19.83039474 C3.22271277 18.87558748 3.22271277 18.87558748 -15.33447266 24.22705078 C-17.03543485 27.62897516 -16.68685556 31.35102837 -16.77197266 35.10205078 C-16.81773437 35.91802734 -16.86349609 36.73400391 -16.91064453 37.57470703 C-16.95482848 39.92990358 -16.89786602 41.93851198 -16.33447266 44.22705078 C-10.49998876 49.74360257 -3.38642533 49.37518109 4.234375 49.40063477 C5.07428986 49.40732178 5.91420471 49.41400879 6.77957153 49.42089844 C8.5964885 49.43490071 10.41342255 49.44680991 12.23036575 49.45684624 C15.11582868 49.47335183 18.00116635 49.49659574 20.88656616 49.52174377 C29.08837555 49.59223779 37.29023691 49.65241121 45.4921875 49.70385742 C50.51775063 49.73585207 55.54316967 49.77718002 60.56861496 49.82405281 C62.47335568 49.83995332 64.37812949 49.8523292 66.28291702 49.86096001 C100.29281637 50.0172348 100.29281637 50.0172348 111.72802734 60.53955078 C116.42149448 65.28078858 117.99205074 71.8192945 118.08236694 78.29017639 C118.0732579 79.34367531 118.0732579 79.34367531 118.06396484 80.41845703 C118.06827011 81.54186745 118.06827011 81.54186745 118.07266235 82.68797302 C118.07468859 84.25854252 118.06926044 85.8291381 118.05664062 87.3996582 C118.04054209 89.78736304 118.056549 92.17338149 118.07568359 94.56103516 C118.07370135 96.09684614 118.06985805 97.63265608 118.06396484 99.16845703 C118.07003754 99.87281387 118.07611023 100.57717072 118.08236694 101.3028717 C117.98110589 108.52416543 115.41531499 114.26357559 110.59130859 119.59033203 C98.64251896 129.74559137 80.50926901 129.3912851 65.76831055 129.34057617 C64.63529007 129.3407222 63.50226959 129.34086823 62.33491516 129.34101868 C58.62869278 129.3403278 54.92252208 129.33257441 51.21630859 129.32470703 C48.63128181 129.32283992 46.04625468 129.3214174 43.46122742 129.32041931 C37.37712095 129.31700485 31.29303547 129.30914147 25.20893687 129.29906982 C18.27532169 129.28784409 11.34170558 129.28238204 4.40808356 129.27737439 C-9.83944519 129.26695684 -24.08695762 129.24919351 -38.33447266 129.22705078 C-38.33447266 122.62705078 -38.33447266 116.02705078 -38.33447266 109.22705078 C-36.90342194 109.21896393 -35.47237122 109.21087708 -33.99795532 109.20254517 C-20.49157177 109.12495804 -6.98528084 109.03730211 6.5209713 108.9395237 C13.46415403 108.88951456 20.40732565 108.84307087 27.35058594 108.80517578 C34.05501964 108.76857396 40.75931353 108.72183115 47.46364212 108.66898727 C50.01757233 108.65049837 52.57152922 108.63537025 55.12549973 108.62370682 C58.7110742 108.60675019 62.29636646 108.57769214 65.88183594 108.54589844 C66.93056885 108.54373825 67.97930176 108.54157806 69.05981445 108.53935242 C80.18207004 108.51257413 80.18207004 108.51257413 90.25952148 104.4753418 C92.07483861 101.57253655 92.16765184 99.66910763 92.16162109 96.25439453 C92.16258789 94.53446289 92.16258789 94.53446289 92.16357422 92.77978516 C92.14359375 91.58675781 92.12361328 90.39373047 92.10302734 89.16455078 C92.11011719 87.96765625 92.11720703 86.77076172 92.12451172 85.53759766 C92.3681832 79.79171997 92.3681832 79.79171997 90.63842773 74.48706055 C85.12726918 70.96731184 78.31072526 70.93180509 71.97729492 70.93994141 C71.14844788 70.93310837 70.31960083 70.92627533 69.46563721 70.91923523 C67.67878201 70.90572437 65.89188901 70.89662182 64.10499001 70.89152527 C61.26522857 70.88316886 58.42577849 70.86259974 55.58610535 70.83898926 C49.55012621 70.79094644 43.51411545 70.75793175 37.47802734 70.72705078 C30.49433846 70.69120767 23.51080187 70.64898492 16.52725792 70.59111023 C13.75071942 70.57126997 10.97430215 70.56276764 8.19770813 70.55480957 C-7.52895345 70.46111849 -24.14327241 70.25133782 -36.58056641 59.39892578 C-42.73726287 51.7750433 -42.92735532 44.78323919 -42.77197266 35.16455078 C-42.7790625 33.92382812 -42.78615234 32.68310547 -42.79345703 31.40478516 C-42.73429314 22.89883861 -41.98018409 16.31376121 -36.10009766 9.70751953 C-25.71311279 0.99807868 -12.95839911 -0.08433643 0 0 Z " fill="#09A144" transform="translate(689.33447265625,1107.77294921875)"/>
<path d="M0 0 C1.78753189 -0.00065712 1.78753189 -0.00065712 3.61117554 -0.00132751 C7.50690735 0.0007441 11.40219595 0.02399844 15.29785156 0.04760742 C18.0159684 0.0548886 20.73408485 0.05762431 23.45220947 0.06047058 C29.84800841 0.06974612 36.2436511 0.09429808 42.63938165 0.12451905 C49.92849546 0.15820411 57.21761725 0.1745843 64.50678968 0.18960536 C79.48410752 0.22085243 94.46127045 0.27413781 109.43847656 0.34057617 C109.43847656 6.61057617 109.43847656 12.88057617 109.43847656 19.34057617 C108.12239914 19.35088364 106.80632172 19.3611911 105.45036316 19.37181091 C93.01860287 19.46977013 80.58689013 19.57252437 68.15520763 19.67991543 C61.76470263 19.73496724 55.37419293 19.78835782 48.98364258 19.83789062 C42.81092387 19.88579717 36.63825708 19.9381475 30.46560097 19.99351692 C28.11623752 20.01382198 25.76685991 20.03255366 23.41747093 20.04965019 C20.11476934 20.07395868 16.81216344 20.10397413 13.50952148 20.13525391 C12.06805 20.1438871 12.06805 20.1438871 10.59745789 20.1526947 C-2.94643911 20.10101694 -2.94643911 20.10101694 -15.56152344 24.34057617 C-17.18994045 27.5974102 -16.82947921 31.14015952 -16.87402344 34.71557617 C-16.9175293 35.86799805 -16.9175293 35.86799805 -16.96191406 37.04370117 C-17.00173858 40.5850202 -16.95733463 42.71175531 -15.04199219 45.75463867 C-9.18948965 49.49655368 -2.45943716 49.63387313 4.27856445 49.61181641 C5.12370605 49.61704315 5.96884766 49.6222699 6.83959961 49.62765503 C8.66247277 49.63784018 10.48537457 49.64366579 12.30827522 49.64553642 C15.20739625 49.64922884 18.10618387 49.66603649 21.00523376 49.68629456 C29.24390411 49.74141174 37.48262361 49.77224768 45.72143555 49.796875 C50.77528578 49.81288564 55.82890044 49.8432472 60.88262749 49.88163948 C62.79326281 49.89317529 64.70394052 49.89921882 66.61461067 49.8993206 C98.40127899 49.90162698 98.40127899 49.90162698 110.43847656 59.34057617 C115.93986075 65.71346676 117.59675716 71.12046954 117.67675781 79.44604492 C117.68482956 80.24408035 117.69290131 81.04211578 117.70121765 81.86433411 C117.71504409 83.55471637 117.72577269 85.24512638 117.73364258 86.93554688 C117.74513928 88.65503178 117.76555449 90.37448165 117.79516602 92.09375 C117.83808945 94.58642679 117.85404719 97.07804322 117.86425781 99.57104492 C117.8817659 100.32967331 117.89927399 101.0883017 117.91731262 101.86991882 C117.8910731 108.42162536 115.79400117 113.42371274 111.68457031 118.51245117 C95.53372621 132.60519635 70.40459381 129.62189966 50.40332031 129.53588867 C47.82686982 129.53215063 45.25041789 129.52930741 42.67396545 129.52731323 C36.63252837 129.52050929 30.59117697 129.50481685 24.54977185 129.48461425 C17.65955554 129.46208446 10.76933525 129.45121935 3.87909114 129.44122338 C-10.26782104 129.42044428 -24.41466689 129.38496265 -38.56152344 129.34057617 C-38.56152344 122.74057617 -38.56152344 116.14057617 -38.56152344 109.34057617 C-37.13047272 109.33248932 -35.699422 109.32440247 -34.2250061 109.31607056 C-20.71862255 109.23848343 -7.21233162 109.1508275 6.29392052 109.05304909 C13.23710325 109.00303995 20.18027487 108.95659626 27.12353516 108.91870117 C33.82796886 108.88209935 40.53226275 108.83535654 47.23659134 108.78251266 C49.79052155 108.76402376 52.34447844 108.74889564 54.89844894 108.73723221 C58.48402342 108.72027558 62.06931567 108.69121753 65.65478516 108.65942383 C66.70351807 108.65726364 67.75225098 108.65510345 68.83276367 108.65287781 C81.00219847 108.71413404 81.00219847 108.71413404 91.43847656 103.34057617 C91.99199851 100.2449976 91.99199851 100.2449976 91.82910156 96.70385742 C91.81621094 95.40512695 91.80332031 94.10639648 91.79003906 92.76831055 C91.75661758 91.39655515 91.72275779 90.02481036 91.68847656 88.65307617 C91.66841032 87.26963806 91.65015975 85.88617233 91.63378906 84.50268555 C91.58656863 81.11461968 91.52071725 77.72794376 91.43847656 74.34057617 C82.73403467 70.60884662 73.8854182 70.91380233 64.60354424 70.92988586 C61.75403319 70.93441443 58.90512697 70.92021965 56.05567932 70.90148926 C49.99578798 70.86489719 43.935962 70.85104663 37.87597656 70.84057617 C30.86851456 70.82841456 23.86135048 70.80642637 16.85402107 70.76057434 C14.07755737 70.74721349 11.30149116 70.75113735 8.52500916 70.75598145 C-24.38735249 70.65574235 -24.38735249 70.65574235 -35.64746094 60.44995117 C-42.7496184 52.85499095 -42.90198826 45.47698298 -42.87402344 35.46557617 C-42.89013672 34.31959961 -42.90625 33.17362305 -42.92285156 31.99291992 C-42.92770152 23.56368851 -42.1493158 16.24625352 -36.18652344 9.71557617 C-26.24617641 1.3045133 -12.47769764 -0.12260984 0 0 Z " fill="#0AA144" transform="translate(2135.5615234375,1107.659423828125)"/>
<path d="M0 0 C19.036875 -0.061875 38.07375 -0.12375 57.6875 -0.1875 C63.67737061 -0.21481201 69.66724121 -0.24212402 75.83862305 -0.27026367 C83.20666504 -0.28381348 83.20666504 -0.28381348 86.66633606 -0.28633118 C89.0599485 -0.29090928 91.45355444 -0.30140053 93.84712219 -0.31672668 C97.49284713 -0.33888431 101.13815275 -0.3417114 104.78393555 -0.34057617 C106.35792004 -0.35676766 106.35792004 -0.35676766 107.9637022 -0.37328625 C119.46683528 -0.32576399 132.18462992 1.46370758 140.8125 9.73828125 C147.81421612 17.59838084 148.18031487 25.17211599 148.1875 35.375 C148.19974609 36.2825 148.21199219 37.19 148.22460938 38.125 C148.24446567 47.31184596 146.92331468 54.48368103 140.60546875 61.5625 C134.47146559 67.53233276 126.22412243 69.47868798 118 71 C119.60182151 76.70881738 122.37118019 81.55039157 125.25 86.6875 C129.86050313 95.0352615 134.3890662 103.42085185 138.80212402 111.87442017 C139.43268173 113.08053942 140.06556792 114.28544428 140.70080566 115.48910522 C141.59307901 117.18094857 142.4764238 118.87749167 143.359375 120.57421875 C143.86952148 121.54963623 144.37966797 122.52505371 144.90527344 123.5300293 C146 126 146 126 146 129 C137.09 129 128.18 129 119 129 C117.75605469 126.56109375 116.51210937 124.1221875 115.23046875 121.609375 C113.98323863 119.16938204 112.7349516 116.72993249 111.48657227 114.29052734 C110.63912052 112.63321052 109.79271671 110.9753573 108.94750977 109.31689453 C102.53341648 96.73378376 95.81103819 84.3837058 89 72 C57.32 71.505 57.32 71.505 25 71 C25 90.14 25 109.28 25 129 C16.75 129 8.5 129 0 129 C0 86.43 0 43.86 0 0 Z M25 19 C25 29.89 25 40.78 25 52 C35.22345261 52.04536003 45.44683732 52.08197865 55.67036819 52.10362434 C60.41863015 52.11401826 65.1668191 52.12809632 69.91503906 52.15087891 C74.50567076 52.17276508 79.09623266 52.18460157 83.68691254 52.18975449 C85.42980801 52.19342213 87.17270009 52.2005833 88.91556549 52.21146011 C104.93721067 52.61250849 104.93721067 52.61250849 120.2109375 48.53125 C123.09914548 44.44487714 122.72426023 40.3769858 122.625 35.5 C122.65400391 34.07494141 122.65400391 34.07494141 122.68359375 32.62109375 C122.67714844 31.70457031 122.67070313 30.78804687 122.6640625 29.84375 C122.65842285 29.01037109 122.6527832 28.17699219 122.64697266 27.31835938 C121.70058212 23.92706711 119.87552412 22.95346966 117 21 C106.64736423 18.07110122 95.23540444 18.7359163 84.5703125 18.8046875 C82.84154425 18.80842798 81.11277384 18.81127005 79.38400269 18.81326294 C74.88289302 18.82081802 70.38191703 18.8403944 65.88085938 18.8626709 C61.26824755 18.8833067 56.65561365 18.89230218 52.04296875 18.90234375 C43.02857832 18.92364986 34.0143213 18.9587634 25 19 Z " fill="#09A144" transform="translate(990,1108)"/>
<path d="M0 0 C23.82908792 0 23.82908792 0 31.92797852 7.03271484 C32.42740967 7.54527832 32.92684082 8.0578418 33.44140625 8.5859375 C36.98462491 12.06337737 40.8008357 14.96232781 44.8125 17.875 C52.87845525 23.86151264 60.79891048 30.02877509 68.71337891 36.21337891 C80.44697498 45.38126873 92.22523313 54.48706839 104.06298828 63.52001953 C109.05284325 67.33253539 114.02470368 71.1685218 119 75 C120.62290015 76.24872603 122.24598542 77.49721101 123.86914062 78.74560547 C124.94606001 79.57393059 126.02288481 80.40237869 127.09960938 81.23095703 C129.95529695 83.42837557 132.81255851 85.62371123 135.671875 87.81640625 C136.27064453 88.27595703 136.86941406 88.73550781 137.48632812 89.20898438 C138.64082281 90.09499193 139.79575402 90.98043104 140.95117188 91.86523438 C144.8875378 94.8875378 144.8875378 94.8875378 146 96 C146.33 64.32 146.66 32.64 147 0 C154.92 0 162.84 0 171 0 C171 42.57 171 85.14 171 129 C148.0546399 129 148.0546399 129 140.875 122.375 C139.6523645 121.35817139 139.6523645 121.35817139 138.4050293 120.32080078 C136.7274596 118.92485267 135.06494944 117.51059627 133.41845703 116.078125 C129.66824674 112.85565478 125.73725155 109.87996106 121.8125 106.875 C120.3243304 105.71506735 118.8373398 104.55362041 117.3515625 103.390625 C110.2785896 97.86948816 103.1373126 92.43751922 96 87 C95.17064941 86.36803711 94.34129883 85.73607422 93.48681641 85.08496094 C89.92692639 82.37247449 86.36685922 79.66022098 82.80639648 76.94848633 C77.28356707 72.74174833 71.76431706 68.53038986 66.25 64.3125 C65.56494385 63.78857666 64.8798877 63.26465332 64.17407227 62.72485352 C60.69135717 60.06072706 57.21011926 57.39469042 53.73046875 54.7265625 C53.01149414 54.17572998 52.29251953 53.62489746 51.55175781 53.05737305 C50.22896829 52.04389632 48.90662873 51.02983172 47.58496094 50.01489258 C40.10103578 44.28279017 32.5428273 38.65712047 25 33 C24.67 64.68 24.34 96.36 24 129 C16.08 129 8.16 129 0 129 C0 86.43 0 43.86 0 0 Z " fill="#0AA144" transform="translate(1901,1108)"/>
<path d="M0 0 C22 0 22 0 28.625 4.4375 C30.43260258 6.27613438 32.22463 8.13022332 34 10 C35.94701908 11.54149842 37.92697291 13.04230267 39.9375 14.5 C44.13404414 17.60915835 48.30225467 20.74768357 52.4375 23.9375 C52.97753662 24.35386719 53.51757324 24.77023437 54.07397461 25.19921875 C55.16910169 26.04390537 56.26407208 26.88879517 57.35888672 27.73388672 C60.07022129 29.82567207 62.78528452 31.91260557 65.5 34 C66.58335149 34.83330973 67.66668482 35.66664307 68.75 36.5 C69.28625 36.9125 69.8225 37.325 70.375 37.75 C72.8125 39.625 72.8125 39.625 75.25 41.5 C75.78584717 41.91217773 76.32169434 42.32435547 76.8737793 42.74902344 C77.96123001 43.5855491 79.04863207 44.42213803 80.13598633 45.25878906 C82.78093787 47.29379288 85.42681112 49.32756533 88.07421875 51.359375 C94.31787502 56.15375095 100.54038067 60.97411088 106.75 65.8125 C114.01710156 71.47341658 121.3192622 77.08649729 128.64453125 82.671875 C134.44037707 87.10062894 140.21842381 91.5526337 146 96 C146.33 64.32 146.66 32.64 147 0 C154.92 0 162.84 0 171 0 C171 42.57 171 85.14 171 129 C150 129 150 129 144.1875 125.25 C142.45471009 123.50358753 140.72584348 121.7532774 139 120 C136.54203063 118.01747213 133.99113153 116.16935097 131.4375 114.3125 C125.562173 109.95354487 119.76271772 105.50659006 114 101 C108.37748431 96.60532796 102.7226501 92.26348832 97 88 C90.50051772 83.15775623 84.09671739 78.20187127 77.7109375 73.2109375 C72.20794909 68.91822832 66.6444942 64.71513906 61.04785156 60.5456543 C55.18216521 56.16383828 49.40173555 51.67640742 43.640625 47.15820312 C37.49046288 42.34478333 31.25331643 37.68998732 25 33 C24.67 64.68 24.34 96.36 24 129 C16.08 129 8.16 129 0 129 C0 86.43 0 43.86 0 0 Z " fill="#0AA144" transform="translate(455,1108)"/>
<path d="M0 0 C8.25 0 16.5 0 25 0 C25.01981934 2.91223389 25.03963867 5.82446777 25.06005859 8.82495117 C25.12694904 18.4442547 25.20458889 28.06344979 25.28752708 37.68262768 C25.33748451 43.51503811 25.38381477 49.34743048 25.421875 55.17993164 C25.45873455 60.80803436 25.50509664 66.43598575 25.55806351 72.06395912 C25.57660383 74.21172749 25.59171312 76.3595283 25.60334396 78.5073452 C25.62021237 81.51441334 25.64924935 84.52113519 25.68115234 87.52807617 C25.68331253 88.41712143 25.68547272 89.30616669 25.68769836 90.22215271 C25.76344062 95.80637583 26.07127277 99.95438021 30.0625 104.1875 C38.6955363 109.51426708 49.65751989 108.29316886 59.44140625 108.265625 C61.13573767 108.26697464 62.8300687 108.26891765 64.5243988 108.27142334 C68.06212072 108.27435975 71.59974113 108.2701244 75.13745117 108.26074219 C79.65524899 108.24933978 84.17280933 108.25592154 88.69059849 108.26788712 C92.18488837 108.27513844 95.6791226 108.27280294 99.17341423 108.26763153 C100.83866339 108.26630453 102.50391773 108.26790919 104.16916084 108.27259064 C106.50166202 108.27771098 108.8337864 108.26986954 111.16625977 108.25878906 C112.18191765 108.26486176 112.18191765 108.26486176 113.21809387 108.27105713 C120.68952504 108.2058187 127.07528687 106.76867154 133 102 C133.90482379 99.28552863 134.13344416 97.67322283 134.15821838 94.8808136 C134.1680072 94.04368835 134.17779602 93.20656311 134.18788147 92.34407043 C134.19363693 91.42913315 134.1993924 90.51419586 134.20532227 89.5715332 C134.21522186 88.60549164 134.22512146 87.63945007 134.23532104 86.64413452 C134.2669453 83.44637515 134.29169722 80.24860092 134.31640625 77.05078125 C134.33697497 74.83546052 134.35797142 72.62014372 134.37937927 70.40483093 C134.43460837 64.57037539 134.484014 58.73588437 134.53222656 52.90136719 C134.58243543 46.94918659 134.63812471 40.99705758 134.69335938 35.04492188 C134.80095123 23.36332366 134.90188763 11.68168169 135 0 C143.25 0 151.5 0 160 0 C160.0905152 13.38719805 160.16383981 26.7741915 160.20724869 40.16162682 C160.22808702 46.37853782 160.25633652 52.59522786 160.30175781 58.81201172 C160.34534876 64.81612941 160.36916533 70.82003509 160.37950897 76.82429886 C160.38687652 79.11034098 160.4012635 81.39637204 160.42292023 83.68232346 C160.45212968 86.894424 160.4559486 90.10565824 160.45410156 93.31787109 C160.46848267 94.25439514 160.48286377 95.19091919 160.49768066 96.15582275 C160.44694918 104.35620506 158.42143114 111.60835425 152.875 117.8125 C139.00332192 130.38000322 119.48892027 129.16034332 102.015625 129.16796875 C100.26983616 129.17118969 98.52404758 129.17455437 96.77825928 129.17805481 C93.13048681 129.18401654 89.48273793 129.18589778 85.83496094 129.18530273 C81.19785456 129.18520131 76.56090197 129.19884655 71.92383194 129.21607494 C68.32036669 129.22728191 64.7169376 129.22921929 61.11345673 129.22869301 C59.4057131 129.22986033 57.69796815 129.2342105 55.990242 129.24202538 C19.53568679 129.3932358 19.53568679 129.3932358 7 117 C0.79669831 109.23004813 -0.30185324 101.50224433 -0.22705078 91.84204102 C-0.22734283 90.84615463 -0.22763489 89.85026825 -0.22793579 88.82420349 C-0.22654864 85.55068073 -0.21101629 82.27738898 -0.1953125 79.00390625 C-0.19158019 76.72704696 -0.18873425 74.45018606 -0.18673706 72.17332458 C-0.1791178 66.19417857 -0.15948392 60.21513042 -0.1373291 54.23602295 C-0.1168339 48.12936731 -0.10772749 42.02269578 -0.09765625 35.91601562 C-0.07623645 23.9439606 -0.04106817 11.97200377 0 0 Z " fill="#09A144" transform="translate(1154,1108)"/>
<path d="M0 0 C1.65542061 -0.00043808 1.65542061 -0.00043808 3.34428406 -0.00088501 C6.95860918 0.00049806 10.57272302 0.01601095 14.18701172 0.03173828 C16.70620613 0.03547205 19.225402 0.0383173 21.74459839 0.04031372 C27.67647353 0.04714573 33.60828191 0.0628766 39.54012287 0.0830127 C46.29958681 0.10545465 53.05905454 0.11638588 59.81854653 0.12640357 C73.70963986 0.14724553 87.60066258 0.1827776 101.49169922 0.22705078 C101.49169922 6.49705078 101.49169922 12.76705078 101.49169922 19.22705078 C98.56077393 19.24687012 95.62984863 19.26668945 92.61010742 19.28710938 C82.88708557 19.3542498 73.16416744 19.43188493 63.44126606 19.51457787 C57.55079276 19.56435805 51.66033583 19.6106887 45.76977539 19.64892578 C40.07680193 19.6860107 34.38397178 19.73243137 28.69112206 19.78511429 C26.52763592 19.80353567 24.36411921 19.81868797 22.20058632 19.83039474 C2.49353502 18.97948668 2.49353502 18.97948668 -15.50830078 25.22705078 C-16.98814602 28.18674126 -16.6683699 30.86447366 -16.70117188 34.16772461 C-16.70934937 34.88174942 -16.71752686 35.59577423 -16.72595215 36.33143616 C-16.7508038 38.69897623 -16.76732158 41.06645636 -16.78173828 43.43408203 C-16.78706196 44.24241674 -16.79238564 45.05075146 -16.79787064 45.88358116 C-16.82460142 50.16220527 -16.84397638 54.44080021 -16.85839844 58.71948242 C-16.87504514 63.13826847 -16.91982247 67.55630851 -16.97076988 71.97481251 C-17.00443083 75.37290806 -17.01597453 78.77082629 -17.02162552 82.1690731 C-17.0283414 83.7977843 -17.04357243 85.4264837 -17.06751633 87.05503273 C-17.09914829 89.33670402 -17.0992089 91.61636025 -17.09179688 93.89819336 C-17.10392715 95.84439323 -17.10392715 95.84439323 -17.11630249 97.82991028 C-16.31548839 102.30436814 -15.22610261 103.61860164 -11.50830078 106.22705078 C-4.85435793 108.47399513 2.127359 108.529695 9.08203125 108.54589844 C10.5911483 108.56096687 10.5911483 108.56096687 12.13075256 108.57633972 C15.42033371 108.60696318 18.70983426 108.62414853 21.99951172 108.64111328 C24.29451175 108.65984171 26.58950502 108.67941635 28.88449097 108.69979858 C34.89803057 108.75094878 40.91159246 108.79066582 46.92523193 108.82794189 C53.07244298 108.86808919 59.2195627 108.91913244 65.36669922 108.96923828 C77.40830786 109.06579486 89.44995474 109.14925601 101.49169922 109.22705078 C101.49169922 115.82705078 101.49169922 122.42705078 101.49169922 129.22705078 C88.20811727 129.27241821 74.92458764 129.3090337 61.64094543 129.33067513 C55.47137551 129.3410672 49.3018618 129.3551419 43.13232422 129.37792969 C37.16709854 129.3998224 31.2019266 129.41165373 25.23666382 129.41680527 C22.97235266 129.42047175 20.70804409 129.42763053 18.4437561 129.43851089 C-22.88718681 129.62903251 -22.88718681 129.62903251 -36.53564453 117.71533203 C-43.84862093 108.49084497 -43.11352981 98.54708951 -43.07470703 87.32470703 C-43.07994987 85.47822254 -43.08622875 83.63174072 -43.0934906 81.78526306 C-43.1038651 77.92629339 -43.09937606 74.06769314 -43.0847168 70.20874023 C-43.06753535 65.28498586 -43.09103175 60.36239923 -43.1262064 55.43877506 C-43.14825955 51.62866106 -43.14671981 47.81882307 -43.13844109 44.00866508 C-43.13762586 42.19433753 -43.14440651 40.37998884 -43.15921211 38.56572151 C-43.29708126 18.61576487 -43.29708126 18.61576487 -35.82984924 10.37464905 C-26.21506416 1.05934286 -12.69928132 -0.08946465 0 0 Z " fill="#0AA144" transform="translate(151.50830078125,1107.77294921875)"/>
<path d="M0 0 C1.65542061 -0.00043808 1.65542061 -0.00043808 3.34428406 -0.00088501 C6.95860918 0.00049806 10.57272302 0.01601095 14.18701172 0.03173828 C16.70620613 0.03547205 19.225402 0.0383173 21.74459839 0.04031372 C27.67647353 0.04714573 33.60828191 0.0628766 39.54012287 0.0830127 C46.29958681 0.10545465 53.05905454 0.11638588 59.81854653 0.12640357 C73.70963986 0.14724553 87.60066258 0.1827776 101.49169922 0.22705078 C101.49169922 6.49705078 101.49169922 12.76705078 101.49169922 19.22705078 C98.56077393 19.24687012 95.62984863 19.26668945 92.61010742 19.28710938 C82.88708557 19.3542498 73.16416744 19.43188493 63.44126606 19.51457787 C57.55079276 19.56435805 51.66033583 19.6106887 45.76977539 19.64892578 C40.07680193 19.6860107 34.38397178 19.73243137 28.69112206 19.78511429 C26.52763592 19.80353567 24.36411921 19.81868797 22.20058632 19.83039474 C3.16003381 18.89661942 3.16003381 18.89661942 -14.50830078 24.22705078 C-17.01421616 27.65438437 -16.76185979 31.09173467 -16.76708984 35.22705078 C-16.77059448 35.9234668 -16.77409912 36.61988281 -16.77770996 37.33740234 C-16.78649559 39.63405392 -16.78068945 41.93039619 -16.77392578 44.22705078 C-16.77527335 45.82600971 -16.77721464 47.42496825 -16.77972412 49.02392578 C-16.78267108 52.37292385 -16.77839151 55.72181514 -16.76904297 59.07080078 C-16.75764865 63.36157735 -16.76421041 67.6521037 -16.7761879 71.94287109 C-16.78341805 75.24399701 -16.78111326 78.5450637 -16.77593231 81.84619141 C-16.77459901 83.42822296 -16.77623234 85.0102599 -16.78089142 86.59228516 C-16.78597568 88.80401843 -16.77822 91.01534757 -16.76708984 93.22705078 C-16.76549866 94.48517578 -16.76390747 95.74330078 -16.76226807 97.03955078 C-16.51982321 100.08243472 -16.26289535 101.76139744 -14.50830078 104.22705078 C-6.92592333 108.16405446 0.28985509 108.38140469 8.62792969 108.43237305 C10.13617058 108.44722244 10.13617058 108.44722244 11.67488098 108.46237183 C14.98619258 108.49386633 18.2975185 108.51869653 21.60888672 108.54345703 C23.90960047 108.56403696 26.21031054 108.58503371 28.51101685 108.60643005 C34.55750533 108.66154335 40.60402732 108.71099993 46.65057373 108.75927734 C52.82420829 108.80957089 58.99779437 108.86521593 65.17138672 108.92041016 C77.27811761 109.02786033 89.38488985 109.12883967 101.49169922 109.22705078 C101.49169922 115.82705078 101.49169922 122.42705078 101.49169922 129.22705078 C88.19084656 129.27239975 74.89004602 129.3090232 61.58913326 129.33067513 C55.41168766 129.34107171 49.23429812 129.35515487 43.05688477 129.37792969 C37.08517983 129.39980603 31.11352852 129.41165036 25.14178658 129.41680527 C22.87385783 129.42047464 20.60593171 129.42763927 18.33802605 129.43851089 C-21.66686867 129.62249582 -21.66686867 129.62249582 -34.50830078 119.22705078 C-42.52483775 111.21051381 -42.89668385 102.0237425 -42.92514038 91.2409668 C-42.91976995 89.54882553 -42.91361682 87.85668659 -42.90673828 86.16455078 C-42.90876268 84.40535359 -42.91167715 82.64615723 -42.91543579 80.88696289 C-42.91984194 77.21215776 -42.91348346 73.53757241 -42.89941406 69.86279297 C-42.88232318 65.1723633 -42.89217357 60.48244878 -42.91013145 55.79203796 C-42.92101568 52.16300637 -42.91750176 48.5340952 -42.90974808 44.90505981 C-42.90775887 43.17644183 -42.91015995 41.44781261 -42.91718674 39.71920776 C-42.98658875 17.85168187 -42.98658875 17.85168187 -35.49658203 9.85986328 C-25.145431 1.35931096 -12.89616776 -0.09085169 0 0 Z " fill="#0AA144" transform="translate(1378.50830078125,1107.77294921875)"/>
<path d="M0 0 C51.81 0 103.62 0 157 0 C157 6.27 157 12.54 157 19 C135.55 19 114.1 19 92 19 C92 55.3 92 91.6 92 129 C83.75 129 75.5 129 67 129 C67 92.7 67 56.4 67 19 C44.89 19 22.78 19 0 19 C0 12.73 0 6.46 0 0 Z " fill="#09A144" transform="translate(1494,1108)"/>
<path d="M0 0 C51.81 0 103.62 0 157 0 C157 6.27 157 12.54 157 19 C135.55 19 114.1 19 92 19 C92 55.3 92 91.6 92 129 C83.75 129 75.5 129 67 129 C67 92.7 67 56.4 67 19 C44.89 19 22.78 19 0 19 C0 12.73 0 6.46 0 0 Z " fill="#0AA244" transform="translate(817,1108)"/>
<path d="M0 0 C8.58 0 17.16 0 26 0 C26 42.57 26 85.14 26 129 C17.42 129 8.84 129 0 129 C0 86.43 0 43.86 0 0 Z " fill="#0AA244" transform="translate(1666,1108)"/>
</svg>
