<?xml version="1.0" encoding="UTF-8"?>
<svg version="1.1" xmlns="http://www.w3.org/2000/svg" width="2309" height="1772">
<path d="M0 0 C14.84039053 -0.04710148 29.68077518 -0.08217296 44.52122498 -0.10362434 C51.41472906 -0.1138574 58.30818623 -0.12776135 65.20166016 -0.15087891 C71.87366365 -0.17324273 78.54560874 -0.18462097 85.21765137 -0.18975449 C87.74329386 -0.19340549 90.26893418 -0.20053242 92.79455566 -0.21146011 C129.24730273 -0.36268327 173.71150841 0.21312355 202 27 C214.84610071 40.77337206 218.78974394 55.76621277 218.27734375 74.2265625 C217.6032 88.53183686 211.61626829 102.35902279 201.64453125 112.6875 C184.54614932 127.63911315 162.89479946 133.37542351 141 137 C142.16273438 137.15855469 143.32546875 137.31710937 144.5234375 137.48046875 C173.75970615 141.65751862 201.88891339 150.70527057 220.8125 174.875 C233.00495682 191.88422989 235.38322747 211.74298524 232.49609375 232.171875 C228.65762473 251.91257281 217.98145488 268.26631002 201.44433594 279.58813477 C176.0627285 296.22222842 144.84684735 301.20624029 115.0012207 301.11352539 C113.12612572 301.11374443 113.12612572 301.11374443 111.21315002 301.1139679 C107.82132307 301.11339501 104.42955874 301.10841699 101.03774285 301.10139394 C97.47968754 301.095097 93.92163119 301.09455162 90.36357117 301.09336853 C83.64197901 301.09027377 76.92040332 301.08208565 70.19881839 301.07201904 C62.53970285 301.06079996 54.88058648 301.05533292 47.22146475 301.05032361 C31.480967 301.03990127 15.74048563 301.02233814 0 301 C0 300.01 0 299.02 0 298 C1.03125 297.319375 2.0625 296.63875 3.125 295.9375 C10.63316011 290.81553652 13.5422905 282.7008104 15.40297318 274.12565613 C16.9001657 265.14664239 16.414803 255.86052511 16.38818359 246.79101562 C16.39225437 244.45553849 16.39759908 242.12006328 16.40411377 239.78459167 C16.41773285 233.47265798 16.41251105 227.1608722 16.40297651 220.84893608 C16.39612611 214.89852774 16.40136967 208.94813725 16.4057581 202.99772841 C16.41429079 190.49454747 16.40451129 177.99143278 16.388357 165.48826271 C16.37495574 154.784948 16.37728443 144.08173093 16.39111328 133.37841797 C16.40720673 120.91669978 16.41346701 108.45503949 16.40427649 95.99331236 C16.39961278 89.40850705 16.39893924 82.82376883 16.40888596 76.2389679 C16.41758721 70.04675453 16.41147602 63.85472457 16.39420319 57.6625309 C16.3902552 55.39750281 16.39134324 53.13245914 16.39799118 50.86743736 C17.02756377 29.11726804 17.02756377 29.11726804 8 10 C5.91854595 8.08490752 3.80633565 6.27997654 1.57421875 4.54296875 C1.05472656 4.03378906 0.53523438 3.52460937 0 3 C0 2.01 0 1.02 0 0 Z M62 21 C62 56.31 62 91.62 62 128 C114.11834713 130.55213476 114.11834713 130.55213476 159.875 108.6875 C170.66050319 97.17905548 174.37442503 84.24543524 174.2109375 68.73046875 C173.4651984 55.54193474 168.90970514 44.87417161 159.2421875 35.80859375 C143.93891862 23.46466781 123.49321601 20.6344341 104.48046875 20.8046875 C103.39270142 20.80670166 102.30493408 20.80871582 101.1842041 20.81079102 C97.18525881 20.82112385 93.18637441 20.84904447 89.1875 20.875 C80.215625 20.91625 71.24375 20.9575 62 21 Z M62 148 C62 191.89 62 235.78 62 281 C120.62740392 284.15382679 120.62740392 284.15382679 171.48828125 259.69921875 C183.50446733 246.78602344 187.49735545 229.7953041 186.92797852 212.49975586 C185.98587634 194.65558372 180.35658397 179.41505428 167 167 C158.49040615 160.0536702 149.25833554 155.50969839 138.8125 152.3125 C137.84364868 152.00868408 137.84364868 152.00868408 136.85522461 151.69873047 C113.08519506 144.82042338 85.3971862 148 62 148 Z " fill="#E5E1D5" transform="translate(300,693)"/>
<path d="M0 0 C0 11.55 0 23.1 0 35 C-9.4375 36.25 -9.4375 36.25 -12.35327148 36.61425781 C-21.51472305 37.91168611 -30.42123108 41.26356995 -37 48 C-40.24162834 52.93885806 -42.67978657 58.04254081 -43 64 C-42.01846505 66.49425353 -41.01150799 68.66234595 -39.75 71 C-31.0945794 88.49504467 -30.18525573 109.64915197 -35.67578125 128.35546875 C-42.61459466 147.452557 -54.67021746 161.92963449 -72.97558594 171.06835938 C-97.86809977 182.52395908 -128.84519519 184.14236416 -154.65625 174.65625 C-156.64781353 173.80835662 -158.63321544 172.9456998 -160.609375 172.0625 C-163.98392472 170.56270013 -166.2748412 169.79680952 -170 170 C-180.29474416 174.20933643 -190.04954828 180.83389378 -195 191 C-196.60452306 195.81356918 -196.64843115 199.4968187 -194.625 204.1875 C-188.30379611 210.96021845 -179.22819178 211.70449351 -170.40625 212.203125 C-150.8132655 212.43824081 -131.28842296 209.94123107 -111.87890625 207.5 C-110.81937241 207.3673172 -109.75983856 207.2346344 -108.66819763 207.09793091 C-103.41320854 206.43782932 -98.16037349 205.76502651 -92.90991211 205.06982422 C-82.63973386 203.7375104 -72.42813549 202.72366844 -62.078125 202.27734375 C-61.10367432 202.2348349 -60.12922363 202.19232605 -59.12524414 202.14852905 C-41.91487445 201.54956849 -24.5730982 203.6955412 -11.25390625 215.5546875 C-3.59087705 223.54258327 -2.41814078 233.2598109 -2.52514648 243.86791992 C-2.78171049 251.04105153 -4.22589696 257.36034355 -7 264 C-7.36222656 264.87914062 -7.72445313 265.75828125 -8.09765625 266.6640625 C-19.40547562 291.42627034 -45.71079666 306.85774489 -70.10717773 316.28979492 C-109.33888805 330.78583748 -159.79154921 337.15383356 -199.08203125 319.625 C-208.22460599 315.02244528 -215.37490944 308.7488311 -219 299 C-221.71899625 290.19563118 -220.54348712 281.05013948 -216.65625 272.84375 C-208.60815 259.02531415 -194.61862459 251.3280335 -180 246 C-181.16015625 245.84144531 -182.3203125 245.68289063 -183.515625 245.51953125 C-197.67186866 243.4601099 -211.27255365 240.3726446 -220.81640625 228.796875 C-226.98677463 220.05428077 -227.92256193 211.54027 -227 201 C-225.33234637 193.55241048 -222.02148519 187.67850194 -217 182 C-216.44828125 181.35546875 -215.8965625 180.7109375 -215.328125 180.046875 C-206.56273253 170.53230368 -194.5874906 164.41174012 -183 159 C-183.35191406 158.53851562 -183.70382812 158.07703125 -184.06640625 157.6015625 C-185.72450764 155.4109638 -187.36194585 153.20562555 -189 151 C-189.5878125 150.22914063 -190.175625 149.45828125 -190.78125 148.6640625 C-203.35522646 131.62301546 -206.16438288 111.33045255 -203.72314453 90.65527344 C-200.67784451 71.7960112 -190.60736484 56.11459418 -175.5625 44.625 C-152.83977722 29.14534541 -124.26228212 25.56950254 -97.3828125 29.71875 C-81.73432952 32.74334125 -67.07506332 39.5990605 -55 50 C-54.56300781 48.35064453 -54.56300781 48.35064453 -54.1171875 46.66796875 C-49.25526253 28.8832407 -41.54856785 14.51416133 -25 5 C-16.18432296 0.7849241 -10.0200391 0 0 0 Z M-150 60 C-162.29528191 76.51527273 -165.71543972 96.05287207 -163.375 116.25 C-161.07500371 131.57315408 -155.31807417 144.21209894 -143.40625 154.30859375 C-139.56021993 157.0120532 -135.4763236 158.63159019 -131 160 C-130.40960937 160.19078125 -129.81921875 160.3815625 -129.2109375 160.578125 C-116.68848517 162.9675682 -105.04472405 160.87897484 -94.25 154.25 C-83.1598786 146.30306809 -77.17714237 134.69821185 -74.53125 121.46875 C-71.54830715 101.99188784 -72.32462157 80.44937968 -84.421875 63.953125 C-85.20304687 62.98632812 -85.20304687 62.98632812 -86 62 C-86.50015625 61.37609375 -87.0003125 60.7521875 -87.515625 60.109375 C-95.74094553 50.9257647 -107.11338905 47.74055091 -119 46.75 C-130.76518843 47.73043237 -141.88196163 50.92464579 -150 60 Z M-182.4375 270.625 C-187.14377152 275.89222106 -188.49109051 280.47200499 -188.3046875 287.44140625 C-187.59582584 293.39402656 -185.0366292 297.47248115 -180.4375 301.25 C-159.70249377 315.30245358 -128.20974533 310.97332395 -105 307 C-81.56539413 302.37208683 -56.48118972 293.17716516 -42.59375 272.6875 C-38.2867005 265.42463221 -37.04657804 258.4110102 -38 250 C-39.64319453 245.24338425 -41.72266013 242.63920971 -46 240 C-53.62103888 236.89858619 -60.91668694 236.52666592 -69.0625 236.625 C-70.28477295 236.63442627 -71.5070459 236.64385254 -72.76635742 236.65356445 C-108.22027806 237.22824538 -156.93603965 243.1723603 -182.4375 270.625 Z " fill="#E5E1D5" transform="translate(1695,765)"/>
<path d="M0 0 C10.14893867 8.24445033 16.7401977 21.06426271 19.3671875 33.78442383 C19.3671875 35.10442383 19.3671875 36.42442383 19.3671875 37.78442383 C20.0271875 37.78442383 20.6871875 37.78442383 21.3671875 37.78442383 C21.5734375 37.00067383 21.7796875 36.21692383 21.9921875 35.40942383 C29.10957089 16.64541308 44.65044615 2.65783514 62.5234375 -5.59057617 C81.70504396 -13.96831338 103.85037638 -13.35297047 123.2265625 -6.15307617 C135.31725492 -0.74605844 143.77467233 9.23309117 148.8359375 21.28051758 C153.62230405 34.20649004 155.50163332 46.38857909 155.54077148 60.11499023 C155.5474585 61.10658142 155.55414551 62.09817261 155.56103516 63.11981201 C155.57500924 65.25915972 155.58692707 67.39852167 155.59698296 69.53789139 C155.61352901 72.9368837 155.63677304 76.33577144 155.66188049 79.73471069 C155.73227039 89.39429415 155.79255768 99.05392034 155.84399414 108.71362305 C155.87600586 114.63741694 155.91733447 120.56108901 155.96418953 126.48478317 C155.98007578 128.72756105 155.99245799 130.97036686 156.00109673 133.21318436 C155.27950804 160.68706804 155.27950804 160.68706804 167 184.50708008 C168.36058742 185.89938795 168.36058742 185.89938795 170.3671875 186.78442383 C170.3671875 187.77442383 170.3671875 188.76442383 170.3671875 189.78442383 C147.2671875 189.78442383 124.1671875 189.78442383 100.3671875 189.78442383 C100.3671875 185.54411142 102.40066785 184.75094348 105.3671875 181.78442383 C115.93676819 169.08860096 113.81145144 150.2425713 113.765625 134.81176758 C113.76765007 132.39669202 113.7705651 129.98161706 113.77432251 127.56654358 C113.77872459 122.5260735 113.77238265 117.48576381 113.75830078 112.4453125 C113.74120121 106.01455144 113.75106885 99.58416589 113.76901817 93.15341854 C113.77990544 88.17315386 113.77638719 83.19297688 113.7686348 78.21270943 C113.76664692 75.84265663 113.76904186 73.47259562 113.77607346 71.10255241 C114.09645448 45.87341094 114.09645448 45.87341094 102.73828125 23.90942383 C94.74902081 16.49479697 85.03201937 14.42957536 74.42578125 14.57348633 C59.57200803 15.59788448 47.4100105 21.88323989 37.3671875 32.78442383 C32.25780062 39.5073013 28.49844825 46.96213574 25.3671875 54.78442383 C25.02134109 55.63125732 24.67549469 56.47809082 24.31916809 57.35058594 C23.09881568 61.75245336 23.07976351 65.78566762 23.0925293 70.33129883 C23.08741837 71.27529037 23.08230743 72.21928192 23.07704163 73.19187927 C23.06316816 76.30612575 23.0641018 79.42015014 23.06640625 82.53442383 C23.06251597 84.71191489 23.05818061 86.8894052 23.05342102 89.06689453 C23.04596205 93.63308163 23.04624622 98.19919142 23.05151367 102.76538086 C23.057285 108.58420048 23.04043228 114.40269937 23.017169 120.22146606 C23.00234623 124.72224748 23.00157191 129.22295338 23.00467873 133.72375488 C23.00416904 135.86690909 22.99899843 138.01006792 22.98886681 140.15319824 C22.42682136 163.52798753 22.42682136 163.52798753 33.0234375 183.52661133 C34.46728228 184.95002434 35.91675592 186.36772322 37.3671875 187.78442383 C37.3671875 188.44442383 37.3671875 189.10442383 37.3671875 189.78442383 C13.9371875 189.78442383 -9.4928125 189.78442383 -33.6328125 189.78442383 C-32.01769691 186.55419265 -31.12073032 185.09580023 -28.7578125 182.65942383 C-17.12162317 169.20685372 -19.31940953 147.84798593 -19.33203125 131.22583008 C-19.32813332 129.06599344 -19.32379644 126.90615756 -19.31904602 124.74632263 C-19.31162956 120.24231469 -19.31184207 115.7383852 -19.31713867 111.234375 C-19.32293354 105.50456941 -19.30597914 99.77508705 -19.282794 94.04533482 C-19.26796065 89.59167144 -19.26719783 85.13808427 -19.27030373 80.68440056 C-19.26979554 78.57360124 -19.26465404 76.46279708 -19.25449181 74.35202217 C-19.17955967 56.61893766 -19.16135211 38.1501763 -31.1328125 23.78442383 C-31.9578125 23.12442383 -32.7828125 22.46442383 -33.6328125 21.78442383 C-34.4784375 21.08317383 -35.3240625 20.38192383 -36.1953125 19.65942383 C-47.36334709 13.5677686 -59.70972659 13.45595977 -71.72265625 16.81958008 C-86.79091699 21.81536585 -97.62538636 32.81185707 -104.8828125 46.72192383 C-105.87630407 48.70611627 -106.78436662 50.73401296 -107.6328125 52.78442383 C-107.88896835 53.37306717 -108.14512421 53.96171051 -108.40904236 54.56819153 C-111.81587207 63.81516848 -111.04569469 73.69103759 -110.99609375 83.39379883 C-110.99557408 85.40863037 -110.9960959 87.42346242 -110.99760437 89.43829346 C-110.99751496 93.6510785 -110.98715272 97.86367097 -110.96899414 102.07641602 C-110.94636704 107.43995152 -110.94575584 112.80320471 -110.95251179 118.16677475 C-110.9558766 122.32613573 -110.94917376 126.485434 -110.93938255 130.64478302 C-110.93556903 132.62046224 -110.93436611 134.59614849 -110.9359684 136.57183075 C-111.39761634 162.30696453 -111.39761634 162.30696453 -100 184.50708008 C-98.63941258 185.89938795 -98.63941258 185.89938795 -96.6328125 186.78442383 C-96.6328125 187.77442383 -96.6328125 188.76442383 -96.6328125 189.78442383 C-120.0628125 189.78442383 -143.4928125 189.78442383 -167.6328125 189.78442383 C-166.44871065 185.04801641 -165.30766579 184.70797378 -161.6328125 181.78442383 C-159.83552276 179.16932268 -159.83552276 179.16932268 -158.4453125 176.22192383 C-157.95675781 175.27188477 -157.46820312 174.3218457 -156.96484375 173.34301758 C-153.59038016 164.32795504 -153.3349593 155.10967289 -153.34228516 145.58056641 C-153.33556793 144.30743591 -153.32885071 143.03430542 -153.32192993 141.72259521 C-153.30441975 138.26151919 -153.29958091 134.80054233 -153.29829836 131.33942628 C-153.29686743 129.16746852 -153.29258018 126.99553523 -153.28730392 124.8235836 C-153.26885189 117.21896161 -153.26062707 109.61440927 -153.26220703 102.00976562 C-153.26340653 94.96549643 -153.2423296 87.92153454 -153.2107197 80.877343 C-153.18440726 74.79283066 -153.17384598 68.70841776 -153.17511785 62.62384909 C-153.17562319 59.00610388 -153.17018126 55.38863218 -153.14876175 51.7709446 C-152.05497444 26.07337767 -152.05497444 26.07337767 -162.0703125 3.26489258 C-163.65938312 1.68356837 -163.65938312 1.68356837 -165.8203125 0.27270508 C-166.4184375 -0.21842773 -167.0165625 -0.70956055 -167.6328125 -1.21557617 C-167.6328125 -2.20557617 -167.6328125 -3.19557617 -167.6328125 -4.21557617 C-147.1728125 -4.21557617 -126.7128125 -4.21557617 -105.6328125 -4.21557617 C-106.9528125 1.39442383 -108.2728125 7.00442383 -109.6328125 12.78442383 C-110.01082578 16.3925121 -110.31613969 19.75568375 -110.3828125 23.34692383 C-110.42728516 24.59119141 -110.42728516 24.59119141 -110.47265625 25.8605957 C-110.54112367 27.83473967 -110.58945674 29.80956878 -110.6328125 31.78442383 C-110.15972656 31.03418945 -109.68664062 30.28395508 -109.19921875 29.51098633 C-104.54752952 22.31129578 -99.6487541 15.91465793 -93.6328125 9.78442383 C-92.95863281 9.08575195 -92.28445313 8.38708008 -91.58984375 7.66723633 C-68.69355976 -14.41285743 -25.95701614 -19.32416019 0 0 Z " fill="#E5E1D5" transform="translate(998.6328125,1187.215576171875)"/>
<path d="M0 0 C21.78636635 19.8054711 35.08026505 44.43566112 42.21533203 72.88891602 C42.21533203 73.54891602 42.21533203 74.20891602 42.21533203 74.88891602 C27.36533203 74.88891602 12.51533203 74.88891602 -2.78466797 74.88891602 C-4.76466797 68.67047852 -4.76466797 68.67047852 -6.78466797 62.32641602 C-11.95562423 46.59370643 -18.28892421 33.84070219 -28.78466797 20.88891602 C-29.33509766 20.17348633 -29.88552734 19.45805664 -30.45263672 18.72094727 C-45.12698196 0.56823871 -69.37497725 -9.36182031 -92.08544922 -11.82983398 C-119.05377362 -13.88022401 -146.72232473 -7.83570383 -167.66357422 10.04516602 C-168.36353516 10.65360352 -169.06349609 11.26204102 -169.78466797 11.88891602 C-170.37119141 12.33235352 -170.95771484 12.77579102 -171.56201172 13.23266602 C-194.31738394 30.79445916 -205.86787156 64.04820899 -209.95996094 91.44262695 C-212.41923952 111.21417864 -212.06287782 132.42619161 -207.78466797 151.88891602 C-207.5272583 153.08363525 -207.5272583 153.08363525 -207.26464844 154.30249023 C-204.71144287 165.78621106 -200.934185 176.32432389 -195.78466797 186.88891602 C-195.31287109 187.8724707 -194.84107422 188.85602539 -194.35498047 189.86938477 C-181.7077111 214.62802226 -160.08423315 231.47122958 -134.03857422 240.13500977 C-103.33776621 249.00413208 -69.21253264 246.09826936 -40.72216797 231.51391602 C-25.70229088 222.7764843 -11.85526781 210.85116715 -2.78466797 195.88891602 C-2.43984375 195.33429688 -2.09501953 194.77967773 -1.73974609 194.20825195 C7.32261816 179.5152853 12.91060373 163.98126832 16.48876953 147.13500977 C17.21533203 143.88891602 17.21533203 143.88891602 18.21533203 141.88891602 C26.79533203 141.88891602 35.37533203 141.88891602 44.21533203 141.88891602 C44.21533203 172.22671591 28.12102465 203.87544201 9.21533203 226.88891602 C8.75900391 227.44450195 8.30267578 228.00008789 7.83251953 228.57250977 C-15.96966648 257.03769713 -52.56816616 272.26339533 -88.93261719 275.69042969 C-131.39138591 278.64531575 -174.80909704 270.45096932 -208.04541016 242.40844727 C-224.44094533 228.08421777 -237.0229725 211.83767337 -245.78466797 191.88891602 C-246.09243164 191.19749512 -246.40019531 190.50607422 -246.71728516 189.79370117 C-264.34421943 149.52066899 -265.34102199 98.98740877 -249.42919922 57.94213867 C-243.43903698 43.43517556 -236.03815516 29.80105555 -225.78466797 17.88891602 C-225.05763672 17.02395508 -224.33060547 16.15899414 -223.58154297 15.26782227 C-197.24191579 -15.09854648 -159.48324552 -31.65481116 -119.69482422 -34.83374023 C-76.8527205 -37.56871443 -32.90542876 -29.08411998 0 0 Z " fill="#E5E1D5" transform="translate(559.78466796875,1107.111083984375)"/>
<path d="M0 0 C-0.05923071 0.59535396 -0.11846141 1.19070791 -0.17948699 1.8041029 C-1.71617564 17.62017748 -2.2894497 33.26082642 -2.25878906 49.14453125 C-2.26150808 51.55557866 -2.26507407 53.96662524 -2.26940918 56.37767029 C-2.27842329 62.84614655 -2.27503596 69.31455808 -2.26865101 75.78303528 C-2.26506356 79.83635699 -2.26577771 83.88967069 -2.26763153 87.94299316 C-2.26809123 88.95945752 -2.26809123 88.95945752 -2.26856022 89.9964565 C-2.2691998 91.37394699 -2.26984823 92.75143747 -2.2705054 94.12892795 C-2.276174 106.96796653 -2.26970398 119.8069763 -2.25890467 132.64601016 C-2.249956 143.62453544 -2.25153877 154.60301843 -2.26074219 165.58154297 C-2.27147846 178.3942131 -2.275642 191.2068582 -2.26951766 204.0195322 C-2.26888068 205.38886578 -2.26825194 206.75819937 -2.26763153 208.12753296 C-2.26732298 208.8009371 -2.26701443 209.47434123 -2.26669653 210.16815156 C-2.26498084 214.87827138 -2.26785981 219.5883751 -2.27259064 224.29849243 C-2.27839989 230.64841147 -2.27430211 236.99825116 -2.26280212 243.3481617 C-2.2601755 245.66676769 -2.2608861 247.98538046 -2.26532745 250.30398369 C-3.01698824 280.57450202 -3.01698824 280.57450202 11.171875 306.00390625 C13 308 13 308 13 310 C-6.8 310 -26.6 310 -47 310 C-46 294.1875 -46 294.1875 -45.68359375 289.27026367 C-45.20289418 281.50133837 -44.84805238 273.7883708 -45 266 C-45.49628906 266.97839844 -45.99257812 267.95679688 -46.50390625 268.96484375 C-50.39751629 276.52797117 -54.29174109 283.62232907 -60 290 C-60.67675781 290.75796875 -61.35351562 291.5159375 -62.05078125 292.296875 C-75.32066858 306.344571 -92.94859517 313.17151497 -112.015625 314.28515625 C-133.78419213 314.7760161 -153.65355821 308.35661763 -169.69140625 293.26953125 C-170.45324219 292.52058594 -171.21507812 291.77164062 -172 291 C-172.94166016 290.07767578 -172.94166016 290.07767578 -173.90234375 289.13671875 C-194.28163644 267.55592581 -198.73072582 235.4281513 -198.25 207.04296875 C-197.29468483 176.98397685 -187.3054052 148.76279334 -165.20703125 127.796875 C-147.08162141 111.44128632 -124.41317943 107.7766738 -100.91552734 108.79736328 C-78.22999672 110.37406655 -61.8484048 122.7097974 -47.42578125 139.22265625 C-46 141 -46 141 -45 143 C-44.95346619 129.95992775 -44.91802448 116.91987557 -44.89637566 103.8797369 C-44.88598039 97.82335901 -44.87189972 91.76703833 -44.84912109 85.71069336 C-44.82723994 79.85569771 -44.81539943 74.00075676 -44.81024551 68.14572334 C-44.80657699 65.92245181 -44.79941408 63.69918295 -44.78853989 61.47593498 C-43.90615091 33.42886038 -43.90615091 33.42886038 -56.609375 9.59375 C-58 8 -58 8 -58 6 C-51.51705501 4.62788092 -45.06038679 3.52052962 -38.484375 2.7109375 C-37.62491272 2.60278717 -36.76545044 2.49463684 -35.87994385 2.38320923 C-34.08197259 2.15795697 -32.2837713 1.93453371 -30.48535156 1.71289062 C-27.74211575 1.37402608 -24.99996108 1.02722864 -22.2578125 0.6796875 C-20.50005904 0.4604636 -18.74224841 0.24169751 -16.984375 0.0234375 C-15.76545563 -0.13120468 -15.76545563 -0.13120468 -14.52191162 -0.28897095 C-3.31152908 -1.65576454 -3.31152908 -1.65576454 0 0 Z M-119 135 C-120.10794922 135.49306641 -120.10794922 135.49306641 -121.23828125 135.99609375 C-135.61202308 143.17055211 -144.56147958 156.23290636 -150 171 C-159.07689954 200.18475339 -158.96650691 233.87779625 -146.53515625 262.0859375 C-139.32627123 275.76997879 -129.54157926 284.08510869 -115 289 C-102.67170363 292.20454061 -88.3636 290.65851313 -77.29296875 284.4921875 C-74.71837376 282.79161016 -72.36277363 280.98346549 -70 279 C-69.22914063 278.35289062 -68.45828125 277.70578125 -67.6640625 277.0390625 C-48.99689922 259.90095014 -45.22203277 233.3949914 -44.10064697 209.36853027 C-43.82678124 202.92363413 -43.65848005 196.48186268 -43.5949707 190.03149414 C-43.573156 188.37275678 -43.53878529 186.71414126 -43.49243164 185.0559082 C-43.21142623 174.81871114 -43.21452252 167.27864004 -50 159 C-50.70382812 157.98808594 -51.40765625 156.97617187 -52.1328125 155.93359375 C-61.74311554 143.89244935 -73.92687835 135.54296055 -89 132 C-92.27564326 131.70387875 -95.52490614 131.66614194 -98.8125 131.6875 C-99.70106689 131.69241455 -100.58963379 131.6973291 -101.50512695 131.70239258 C-107.75718849 131.81433381 -113.2640874 132.34189416 -119 135 Z " fill="#E5E1D5" transform="translate(1133,684)"/>
<path d="M0 0 C20.43411602 17.13931282 30.33875867 42.0409723 33.51953125 68.11328125 C33.93122145 73.3523035 33.95473485 78.59037306 33.91064453 83.84277344 C33.89453154 86.11324059 33.91062892 88.38192895 33.9296875 90.65234375 C33.9713588 119.43984602 25.18947138 147.55266121 5.1171875 168.63671875 C-12.22369383 185.10634024 -32.94646294 190.82092902 -56.25390625 190.359375 C-78.47570918 189.55109009 -96.92357957 180.26640802 -112.359375 164.5703125 C-114.66856833 161.89539057 -116.54375155 159.06532541 -118.48046875 156.11328125 C-118.55027035 168.25791568 -118.60343233 180.40250163 -118.63590527 192.54729652 C-118.65149806 198.18785359 -118.67261857 203.82827245 -118.70678711 209.46875 C-118.73960968 214.92175004 -118.75736967 220.37461792 -118.76510048 225.8277092 C-118.77060316 227.89830986 -118.78134739 229.96890406 -118.79765892 232.03944778 C-119.36051583 254.56497951 -119.36051583 254.56497951 -109.48046875 274.11328125 C-108.38211858 275.10204547 -107.25867397 276.06408132 -106.10546875 276.98828125 C-105.23921875 277.68953125 -104.37296875 278.39078125 -103.48046875 279.11328125 C-103.48046875 280.10328125 -103.48046875 281.09328125 -103.48046875 282.11328125 C-127.90046875 282.11328125 -152.32046875 282.11328125 -177.48046875 282.11328125 C-176.39601975 277.77548524 -175.99840745 277.40899691 -172.66796875 274.86328125 C-165.62025721 268.92504845 -163.81765525 261.99351145 -162.48046875 253.11328125 C-162.22881412 249.78867682 -162.20526995 246.48569096 -162.21977234 243.15263367 C-162.21594679 242.20179407 -162.21212124 241.25095448 -162.20817977 240.27130157 C-162.19793237 237.11269482 -162.20182614 233.95427267 -162.20581055 230.7956543 C-162.20145948 228.519733 -162.19627502 226.24381318 -162.19032288 223.96789551 C-162.1769636 217.80457164 -162.17635084 211.64130922 -162.17888618 205.4779737 C-162.17995805 200.32412151 -162.17506693 195.17028165 -162.17028075 190.01643211 C-162.15856294 177.15779786 -162.15940455 164.29920761 -162.16583756 151.44057278 C-162.17100405 140.29843107 -162.15975527 129.15637685 -162.14073934 118.01425245 C-162.12132107 106.54762463 -162.11340278 95.08105426 -162.1168626 83.61440688 C-162.11867169 77.1871633 -162.11607657 70.75999984 -162.10214806 64.33276939 C-162.08953349 58.28588178 -162.09154821 52.2391687 -162.10455894 46.19228363 C-162.10691643 43.98046877 -162.10421993 41.7686415 -162.09593582 39.5568409 C-161.3290455 19.10181311 -161.3290455 19.10181311 -169.48046875 1.11328125 C-171.57028214 -0.77196307 -173.68418758 -2.59922087 -175.87109375 -4.37109375 C-176.4021875 -4.87125 -176.93328125 -5.37140625 -177.48046875 -5.88671875 C-177.48046875 -6.54671875 -177.48046875 -7.20671875 -177.48046875 -7.88671875 C-156.36046875 -7.88671875 -135.24046875 -7.88671875 -113.48046875 -7.88671875 C-114.80046875 -3.59671875 -116.12046875 0.69328125 -117.48046875 5.11328125 C-118.51636069 10.97068073 -118.60570446 16.68716969 -118.54296875 22.61328125 C-118.53845703 23.43570312 -118.53394531 24.258125 -118.52929688 25.10546875 C-118.51765364 27.10810521 -118.49972431 29.11070352 -118.48046875 31.11328125 C-118.07957031 30.30246094 -117.67867187 29.49164062 -117.265625 28.65625 C-107.77491599 10.16981226 -93.66316855 -4.54401252 -73.65234375 -11.23828125 C-48.72418434 -18.6106518 -21.00268005 -16.32858434 0 0 Z M-99.48046875 26.11328125 C-117.89247348 47.82410349 -119.86534718 76.92076184 -120.07080078 104.11401367 C-120.09397412 106.24416533 -120.13508806 108.37419495 -120.19384766 110.50366211 C-120.56201396 123.92322118 -120.45693048 133.59967777 -111.48046875 144.11328125 C-110.70791748 145.06074219 -109.93536621 146.00820312 -109.1394043 146.984375 C-99.36237328 158.6617047 -86.03203986 167.82135341 -70.54443359 169.29785156 C-56.05716271 170.24171407 -43.85307754 167.60676707 -32.48046875 158.11328125 C-31.43439453 157.25283203 -31.43439453 157.25283203 -30.3671875 156.375 C-15.94688045 143.29872157 -9.94721636 121.93811944 -8.48046875 103.11328125 C-7.18992773 76.00069774 -7.69565206 46.43323918 -25.73046875 24.359375 C-31.51421179 18.13999747 -37.61701868 14.25866128 -45.48046875 11.11328125 C-46.14433594 10.84773438 -46.80820313 10.5821875 -47.4921875 10.30859375 C-66.2413013 4.37069654 -86.44554114 12.55120583 -99.48046875 26.11328125 Z " fill="#E5E1D5" transform="translate(1354.48046875,1190.88671875)"/>
<path d="M0 0 C-0.07105453 0.78918823 -0.14210907 1.57837646 -0.21531677 2.39147949 C-1.30885979 16.67144899 -1.12930892 30.97497615 -1.10139394 45.28658867 C-1.09507151 49.08351332 -1.09454966 52.88043906 -1.09336853 56.67736816 C-1.0902811 63.84149296 -1.0821032 71.00560218 -1.07201904 78.16972017 C-1.06077677 86.33680186 -1.05532716 94.50388435 -1.05032361 102.67097187 C-1.03991793 119.44732364 -1.02236949 136.22365982 -1 153 C-0.28207024 151.86458015 -0.28207024 151.86458015 0.45036316 150.70622253 C1.39375298 149.21811821 1.39375298 149.21811821 2.35620117 147.69995117 C2.97919601 146.71612961 3.60219086 145.73230804 4.24406433 144.71867371 C15.34680752 127.52855876 32.06273432 115.73358653 52 111 C70.88464888 107.1493828 90.9637958 108.1954744 107.89453125 117.9453125 C122.05424872 127.31388028 128.33715823 141.54302141 132.30859375 157.5 C133.74132346 164.75268823 134.15239859 171.73869488 134.17358398 179.109375 C134.180271 180.0894603 134.18695801 181.06954559 134.19384766 182.07933044 C134.20783597 184.19686677 134.21974946 186.31441762 134.22979546 188.43197632 C134.24632736 191.79755903 134.26957248 195.16303551 134.29469299 198.52856445 C134.36511157 208.09434623 134.42530828 217.6601722 134.47680664 227.22607422 C134.50884739 233.09036554 134.55018617 238.95453453 134.59700203 244.81872559 C134.61287561 247.0383481 134.62526344 249.2579987 134.63390923 251.47766113 C133.88748388 280.52425151 133.88748388 280.52425151 146.4140625 305.5390625 C147.95266478 307.09178003 147.95266478 307.09178003 150 308 C150 308.99 150 309.98 150 311 C126.24 311 102.48 311 78 311 C78.33 309.68 78.66 308.36 79 307 C79.99 306.67 80.98 306.34 82 306 C83.09933664 304.19339481 83.09933664 304.19339481 84 302 C84.4021875 301.25363281 84.804375 300.50726562 85.21875 299.73828125 C93.2781767 284.47942765 92.17138607 267.56507352 92.203125 250.7421875 C92.20595238 249.72540043 92.20877975 248.70861336 92.21169281 247.66101456 C92.22661651 242.27921547 92.23588884 236.89744271 92.24023438 231.515625 C92.24570707 226.00553638 92.26972966 220.49569631 92.29820633 214.98568535 C92.3169829 210.7044101 92.32204624 206.42319295 92.32357025 202.14188004 C92.32656383 200.11284147 92.33447821 198.08380309 92.34775543 196.05480576 C92.46057152 177.48910654 92.35798355 157.52889803 79 143 C76.14158041 141.17388974 76.14158041 141.17388974 73 139.75 C71.453125 138.99976563 71.453125 138.99976563 69.875 138.234375 C59.42449294 133.74747251 45.02083763 134.61070262 34.63671875 138.73828125 C16.39282378 147.46832284 7.46226811 160.13874529 -0.06069946 178.60342407 C-1.26252689 182.94931546 -1.29520416 186.93593293 -1.29052734 191.42333984 C-1.29724457 192.35436523 -1.30396179 193.28539062 -1.31088257 194.24462891 C-1.32984592 197.31678648 -1.33378709 200.38872505 -1.3359375 203.4609375 C-1.34237062 205.61121712 -1.34909936 207.76149587 -1.35610962 209.91177368 C-1.36808116 214.4224856 -1.37179097 218.93312098 -1.37060547 223.44384766 C-1.37040322 229.18408152 -1.39760848 234.92381505 -1.43214989 240.66393089 C-1.45455642 245.10989568 -1.45843869 249.55574314 -1.45738602 254.00175858 C-1.45972506 256.11535985 -1.46845127 258.22896522 -1.48405075 260.34251022 C-1.94223917 282.80364131 -1.94223917 282.80364131 7.47265625 302.52734375 C9.52569843 304.50687547 11.76828747 306.2277577 14 308 C14 308.99 14 309.98 14 311 C-10.75 311 -35.5 311 -61 311 C-61 310.01 -61 309.02 -61 308 C-56.65714286 304 -56.65714286 304 -54 304 C-53.70996094 303.40703125 -53.41992188 302.8140625 -53.12109375 302.203125 C-52.17590204 300.34567509 -51.12969798 298.54013855 -50.0625 296.75 C-43.50206493 283.33846037 -44.5685735 267.17551644 -44.61181641 252.66577148 C-44.60774321 250.35280104 -44.60239716 248.03983254 -44.59588623 245.72686768 C-44.5822966 239.4893544 -44.5874764 233.25199123 -44.59702349 227.01447558 C-44.60466268 220.46188143 -44.59756279 213.90929942 -44.59286499 207.35670471 C-44.58647494 195.65483044 -44.59634578 183.95301886 -44.611643 172.25115544 C-44.62504664 161.67074003 -44.62271191 151.0904234 -44.60888672 140.51000977 C-44.59278319 128.18045941 -44.58688187 115.85097188 -44.59572351 103.52141243 C-44.60038218 97.01036432 -44.60107471 90.49938404 -44.59111404 83.98834038 C-44.58240053 77.86584631 -44.58854603 71.74353745 -44.60579681 65.62106323 C-44.60973814 63.38428618 -44.60866838 61.14749334 -44.60200882 58.91072273 C-44.0078734 34.42983849 -44.0078734 34.42983849 -54.65625 13.23046875 C-55.2028125 12.70066406 -55.749375 12.17085938 -56.3125 11.625 C-57.6428125 10.325625 -57.6428125 10.325625 -59 9 C-59 8.01 -59 7.02 -59 6 C-51.884086 5.13889134 -44.76731138 4.2851857 -37.64990234 3.43652344 C-35.23075446 3.14719659 -32.81180557 2.85620065 -30.39306641 2.56347656 C-26.90839296 2.14204752 -23.42303857 1.72670527 -19.9375 1.3125 C-18.86322754 1.18125732 -17.78895508 1.05001465 -16.68212891 0.91479492 C-15.6616748 0.79467041 -14.6412207 0.6745459 -13.58984375 0.55078125 C-12.25747681 0.39089722 -12.25747681 0.39089722 -10.89819336 0.2277832 C-7.25134551 -0.05884042 -3.65789693 -0.03449231 0 0 Z " fill="#E5E1D5" transform="translate(519,300)"/>
<path d="M0 0 C0.71698059 -0.00261841 1.43396118 -0.00523682 2.17266846 -0.00793457 C13.47466402 -0.01236189 23.94226493 0.83428682 34.75 4.3125 C35.72195313 4.61285156 36.69390625 4.91320313 37.6953125 5.22265625 C50.85516821 9.87086217 61.73982923 19.66186806 68.125 31.9375 C68.44678223 32.53941162 68.76856445 33.14132324 69.10009766 33.76147461 C75.50143629 46.95175277 75.18134399 61.67865039 75.16069031 75.97723961 C75.15615341 79.39702388 75.17037463 82.81630657 75.18908691 86.23603821 C75.23177421 94.72028165 75.24309693 103.20451081 75.25531006 111.68884277 C75.26688356 118.88565177 75.29055814 126.08222838 75.33000183 133.2789402 C75.34346771 136.62898998 75.33942199 139.97871541 75.33459473 143.32878113 C74.83176402 162.03866154 74.83176402 162.03866154 82.75 178.3125 C87.51928214 181.01209367 91.30436175 181.89596124 96.75 181.3125 C99.11522558 180.39046291 101.45401807 179.39551035 103.75 178.3125 C105.0765891 177.95326437 106.4089808 177.61342588 107.75 177.3125 C109.25890003 191.27820803 109.25890003 191.27820803 105.91015625 195.79296875 C103.26791269 197.68386343 100.7351017 199.03089634 97.75 200.3125 C96.80382813 200.72757813 95.85765625 201.14265625 94.8828125 201.5703125 C89.90831506 203.54081979 85.10775366 204.91562936 79.75 205.3125 C79.08871094 205.3640625 78.42742187 205.415625 77.74609375 205.46875 C67.02353126 205.92911046 55.91175587 202.77716833 47.81640625 195.59765625 C37.95479414 185.22705771 36.10004064 171.87655985 33.75 158.3125 C33.32589844 159.14652344 32.90179687 159.98054688 32.46484375 160.83984375 C28.7785286 167.91270776 24.90692528 174.18713805 19.75 180.3125 C19.08097656 181.19808594 19.08097656 181.19808594 18.3984375 182.1015625 C6.58090544 197.23629654 -12.42650756 204.54674303 -30.875 207 C-49.38847256 208.6127889 -68.26943343 205.9742949 -83.25 194.3125 C-93.90111049 184.53383542 -98.11327001 172.66422828 -99.53515625 158.46484375 C-100.01449865 144.31382245 -96.04324668 131.1067865 -86.375 120.75 C-66.41063093 101.27920869 -35.71716524 94.88428453 -9.84375 87.46875 C13.57279709 81.28263873 13.57279709 81.28263873 30.78515625 65.49609375 C34.92764626 56.57528969 34.83695748 46.84307348 31.71875 37.6328125 C28.41707669 29.7247724 23.22856538 25.60136372 15.421875 22.33984375 C1.23248386 17.66082673 -15.18822708 19.40907106 -28.5625 25.625 C-39.1514729 31.35928404 -45.47163832 39.77664667 -49.5625 51.125 C-51.71900634 58.5282988 -51.71900634 58.5282988 -53.25 71.3125 C-66.12 71.3125 -78.99 71.3125 -92.25 71.3125 C-89.15972339 49.68056371 -81.89186086 32.51040729 -64.58007812 19.01025391 C-45.78332317 5.20604745 -22.97792175 0.07966428 0 0 Z M33.75 86.3125 C32.7909375 87.364375 32.7909375 87.364375 31.8125 88.4375 C25.08049838 95.24491345 16.0715776 98.60180815 7.1875 101.625 C5.57633301 102.19130127 5.57633301 102.19130127 3.93261719 102.76904297 C0.54192798 103.96056606 -2.85330031 105.13823041 -6.25 106.3125 C-34.78300366 114.92909682 -34.78300366 114.92909682 -55.75 134.6875 C-59.90493113 143.72390759 -59.98317993 154.66703378 -56.5625 164 C-52.58690967 172.11625708 -47.47854171 175.9541846 -39.25 179.3125 C-27.60931571 183.2763537 -13.54436764 180.02975248 -2.80078125 175.21484375 C13.20012306 166.97703088 23.69270561 152.98734869 29.75 136.3125 C33.73001042 123.81427881 34.90566376 111.85542658 34.8125 98.8125 C34.80798828 97.60851563 34.80347656 96.40453125 34.79882812 95.1640625 C34.7871195 92.21348927 34.77071995 89.26302141 34.75 86.3125 C34.42 86.3125 34.09 86.3125 33.75 86.3125 Z " fill="#E5E1D5" transform="translate(1500.25,1175.6875)"/>
<path d="M0 0 C16.48103422 13.71966164 21.78307113 31.42619949 23.72611427 52.11167431 C24.5598692 61.76031972 24.65597565 71.38420317 24.64939499 81.06337929 C24.64840709 84.2746474 24.66162827 87.48560084 24.67837524 90.69682312 C24.72400292 99.80933359 24.74925474 108.92180244 24.75585938 118.03442383 C24.76090887 123.65442612 24.78531055 129.27408653 24.82118607 134.8939724 C24.83088357 137.01032637 24.83337196 139.12672789 24.82801437 141.24309731 C24.47337104 164.79149092 24.47337104 164.79149092 35.375 184.8125 C36.15875 185.59625 36.9425 186.38 37.75 187.1875 C38.28625 187.72375 38.8225 188.26 39.375 188.8125 C39.375 189.4725 39.375 190.1325 39.375 190.8125 C15.615 190.8125 -8.145 190.8125 -32.625 190.8125 C-31.00988441 187.58226882 -30.11291782 186.12387641 -27.75 183.6875 C-16.28103824 170.51218052 -18.31261001 150.65439344 -18.32421875 134.3828125 C-18.32032438 132.10179569 -18.3159882 129.82077959 -18.31123352 127.5397644 C-18.30380101 122.77404421 -18.30404107 118.00839815 -18.30932617 113.24267578 C-18.31511812 107.16844595 -18.2981816 101.09452131 -18.2749815 95.02034187 C-18.26017289 90.31369282 -18.25938211 85.60711608 -18.26249123 80.90044785 C-18.26198164 78.66239696 -18.25681289 76.42434163 -18.24667931 74.18631363 C-18.17684383 56.60915766 -18.28170042 39.0244595 -30.125 24.8125 C-30.95 24.1525 -31.775 23.4925 -32.625 22.8125 C-33.470625 22.11125 -34.31625 21.41 -35.1875 20.6875 C-46.47051216 14.53312973 -59.45399212 14.35141945 -71.6171875 17.78125 C-86.24157632 22.79532617 -97.08326234 31.77969924 -104.45796204 45.42030334 C-111.03287168 58.89756573 -112.49356125 70.24649837 -112.31640625 85.15625 C-112.31281738 87.18013239 -112.3114742 89.20401985 -112.3122406 91.22790527 C-112.30758232 95.44376503 -112.2830007 99.65884747 -112.24243164 103.87451172 C-112.19146704 109.23332287 -112.17999117 114.59128453 -112.18226719 119.95030975 C-112.18144491 124.12180439 -112.16488738 128.29311953 -112.14326286 132.46455383 C-112.13382933 134.43856963 -112.12783087 136.4126054 -112.12558174 138.38664246 C-112.29907605 161.68721818 -112.29907605 161.68721818 -103.625 182.8125 C-101.72247682 184.66117818 -99.73473297 186.19340261 -97.625 187.8125 C-97.625 188.8025 -97.625 189.7925 -97.625 190.8125 C-121.385 190.8125 -145.145 190.8125 -169.625 190.8125 C-169.625 189.8225 -169.625 188.8325 -169.625 187.8125 C-168.75875 187.173125 -167.8925 186.53375 -167 185.875 C-159.50958658 179.98206811 -156.92210196 169.84585618 -155.625 160.8125 C-155.34576766 156.41689172 -155.33112407 152.03387184 -155.33447266 147.63037109 C-155.32775543 146.34763306 -155.32103821 145.06489502 -155.31411743 143.74328613 C-155.29658303 140.25116036 -155.2917673 136.75913285 -155.29048586 133.2669673 C-155.28905607 131.0760864 -155.28477087 128.88522982 -155.27949142 126.69435501 C-155.26102979 119.02489918 -155.25281559 111.35551248 -155.25439453 103.68603516 C-155.25559356 96.57987179 -155.23452831 89.47401329 -155.2029072 82.36792696 C-155.17659562 76.2324799 -155.16603348 70.09713147 -155.16730535 63.96162856 C-155.16781081 60.31257028 -155.16236216 56.66378313 -155.14094925 53.01478195 C-154.02552851 27.20592313 -154.02552851 27.20592313 -164.0625 4.29296875 C-165.65157062 2.71164454 -165.65157062 2.71164454 -167.8125 1.30078125 C-168.410625 0.80964844 -169.00875 0.31851562 -169.625 -0.1875 C-169.625 -1.1775 -169.625 -2.1675 -169.625 -3.1875 C-148.835 -3.1875 -128.045 -3.1875 -106.625 -3.1875 C-107.945 2.0925 -109.265 7.3725 -110.625 12.8125 C-111.61850398 19.84981983 -111.74648242 26.71252729 -111.625 33.8125 C-111.23570313 33.15765625 -110.84640625 32.5028125 -110.4453125 31.828125 C-97.83939567 11.26363395 -81.83475445 -2.6920814 -58.1875 -8.6796875 C-39.22193485 -12.43810742 -16.1014091 -11.87718933 0 0 Z " fill="#E5E1D5" transform="translate(1776.625,1186.1875)"/>
<path d="M0 0 C15.56314598 14.37170897 19.48756694 36.73345107 20.36716843 56.94189072 C20.52685325 62.82211061 20.54959904 68.7025232 20.55496025 74.58464622 C20.55869164 77.87940647 20.57559493 81.17388334 20.59571838 84.46858215 C20.65051449 93.82169299 20.68180169 103.17484176 20.70629883 112.52807617 C20.72227668 118.28721317 20.75258554 124.04614182 20.79106331 129.80517006 C20.8026058 131.97817062 20.8086427 134.15120852 20.80874443 136.32423973 C20.42939372 160.14793622 20.42939372 160.14793622 30.25 181.25 C31.8780092 182.63026867 33.53043882 183.98561678 35.25 185.25 C35.25 186.24 35.25 187.23 35.25 188.25 C11.82 188.25 -11.61 188.25 -35.75 188.25 C-34.7844147 184.38765878 -34.497681 183.68749571 -31.9375 181.0625 C-20.29933979 167.88933064 -22.43775518 148.77487513 -22.44921875 132.3828125 C-22.44532462 130.05695521 -22.44098849 127.73109861 -22.43623352 125.40524292 C-22.42880009 120.54536629 -22.42904175 115.68556235 -22.43432617 110.82568359 C-22.44011826 104.63038776 -22.4231817 98.43539115 -22.3999815 92.24014473 C-22.38517536 87.44084973 -22.38438178 82.64162566 -22.38749123 77.84231186 C-22.38698152 75.5596037 -22.38181041 73.27689121 -22.37167931 70.99420547 C-22.09755186 45.08870618 -22.09755186 45.08870618 -33.37890625 22.3125 C-42.17813839 14.14615927 -52.98486848 12.76620507 -64.53515625 12.96875 C-78.95958294 13.62425678 -90.98824823 21.0997208 -100.75 31.25 C-106.03412134 37.60120604 -109.76331391 44.56848887 -112.75 52.25 C-113.12350224 53.20518209 -113.12350224 53.20518209 -113.50454998 54.1796608 C-115.53998127 59.75875928 -116.17827635 64.59890925 -116.12231445 70.51074219 C-116.12596512 71.38850311 -116.12961578 72.26626404 -116.13337708 73.17062378 C-116.14142226 76.04624338 -116.12791836 78.92128846 -116.11328125 81.796875 C-116.11276173 83.81553141 -116.11328297 85.83418833 -116.11479187 87.85284424 C-116.1147024 92.07580153 -116.1043286 96.29856693 -116.08618164 100.52148438 C-116.06355413 105.90196195 -116.06294275 111.28215813 -116.06969929 116.66267014 C-116.07306174 120.83057094 -116.06636562 124.99840906 -116.05657005 129.16629791 C-116.05275251 131.14838583 -116.05155534 133.13048077 -116.0531559 135.11257172 C-116.45654203 160.81576246 -116.45654203 160.81576246 -104.23828125 182.4609375 C-102.75 184.25 -102.75 184.25 -101.75 188.25 C-125.51 188.25 -149.27 188.25 -173.75 188.25 C-172.56552335 183.5120934 -171.42309132 183.17758983 -167.75 180.25 C-156.16299632 162.4117686 -158.59511629 139.34848259 -158.6171875 118.97265625 C-158.61651185 116.74938445 -158.61553966 114.52611273 -158.61428833 112.30284119 C-158.61282334 107.66778859 -158.61492685 103.0327554 -158.61962891 98.39770508 C-158.62532207 92.50334913 -158.62204208 86.60903877 -158.61605644 80.71468449 C-158.61241541 76.13060675 -158.61360562 71.54653955 -158.61618423 66.96246147 C-158.61684391 64.79109123 -158.61605927 62.61971998 -158.61370468 60.44835091 C-156.88407436 28.37627613 -156.88407436 28.37627613 -169.40625 0.5390625 C-169.9528125 0.01054688 -170.499375 -0.51796875 -171.0625 -1.0625 C-171.949375 -1.949375 -172.83625 -2.83625 -173.75 -3.75 C-173.75 -4.74 -173.75 -5.73 -173.75 -6.75 C-152.96 -6.75 -132.17 -6.75 -110.75 -6.75 C-112.07 -1.14 -113.39 4.47 -114.75 10.25 C-115.63982682 17.29446229 -115.88847011 24.15725327 -115.75 31.25 C-115.21632813 30.36699219 -114.68265625 29.48398437 -114.1328125 28.57421875 C-101.65812771 8.30817794 -85.73337036 -5.48847897 -62.375 -11.625 C-40.90535887 -15.66264647 -17.6458923 -13.78950524 0 0 Z " fill="#E5E1D5" transform="translate(1424.75,805.75)"/>
<path d="M0 0 C20.46 0 40.92 0 62 0 C61.01 4.62 60.02 9.24 59 14 C58.01450019 20.79966194 57.8411325 27.45995933 57.82299805 34.32446289 C57.81642685 35.42173706 57.80985565 36.51901123 57.80308533 37.64953613 C57.78348173 41.25724371 57.77171828 44.86490989 57.76171875 48.47265625 C57.75764322 49.71317686 57.7535677 50.95369747 57.74936867 52.23180962 C57.73069985 58.12432612 57.71612241 64.01682973 57.7077567 69.90936857 C57.69800637 76.66147725 57.67172601 83.41325621 57.63125581 90.16524893 C57.59719752 96.05399891 57.58559081 101.94264054 57.58155251 107.83148003 C57.57671389 110.31630119 57.56517888 112.80111954 57.54651451 115.28587532 C57.42051157 133.17272868 57.91651729 149.12630531 67.6875 164.6875 C75.86670172 172.86670172 86.85538579 174.84750813 98 175 C110.77604419 174.40499665 122.60055512 168.48439705 131.6953125 159.61328125 C143.07541766 146.70939929 151.09360344 129.10311942 151.14526367 111.77319336 C151.14862228 111.06331772 151.1519809 110.35344208 151.15544128 109.62205505 C151.16492487 107.27796665 151.16689441 104.93395015 151.16796875 102.58984375 C151.17118778 100.94096346 151.17455232 99.29208345 151.17805481 97.64320374 C151.18404294 94.17903993 151.1858955 90.71490104 151.18530273 87.25073242 C151.18522204 83.73537995 151.19207013 80.22015935 151.20581055 76.70483398 C153.70209744 40.66451205 153.70209744 40.66451205 141.89453125 8.60546875 C140.49697213 7.23264519 139.0598826 5.89805066 137.57421875 4.62109375 C136 3 136 3 136 0 C156.46 0 176.92 0 198 0 C197.01 5.28 196.02 10.56 195 16 C194.08093005 24.37742561 193.85141429 32.63604105 193.85473633 41.05786133 C193.85137772 42.30348343 193.8480191 43.54910553 193.84455872 44.83247375 C193.8367492 48.21284669 193.8333849 51.59315815 193.83274293 54.97353578 C193.83202685 57.09506311 193.82988213 59.2165842 193.82724571 61.33810997 C193.81802604 68.76650774 193.81390666 76.19488771 193.81469727 83.62329102 C193.8152975 90.50447876 193.80474766 97.38558798 193.7889536 104.26675588 C193.77580293 110.21198507 193.77051649 116.15718883 193.77115268 122.10243243 C193.77140541 125.63677063 193.76867998 129.17103885 193.75797462 132.70536232 C192.33500932 161.6341566 192.33500932 161.6341566 203.10546875 187.44921875 C204.5074918 188.83139015 205.94497682 190.1791479 207.42578125 191.4765625 C207.94527344 191.97929688 208.46476563 192.48203125 209 193 C209 193.66 209 194.32 209 195 C188.54 195 168.08 195 147 195 C147.66 191.37 148.32 187.74 149 184 C149.24605348 182.06273116 149.46598122 180.12147398 149.6328125 178.17578125 C149.71660156 177.20962891 149.80039062 176.24347656 149.88671875 175.24804688 C149.96535156 174.27931641 150.04398438 173.31058594 150.125 172.3125 C150.21136719 171.33216797 150.29773438 170.35183594 150.38671875 169.34179688 C150.84830148 163.87240782 151.09114586 158.48828272 151 153 C150.52433594 153.96486328 150.52433594 153.96486328 150.0390625 154.94921875 C139.58022182 175.20238813 123.81411743 190.64898657 102 197.9375 C83.50024083 203.81835017 62.36818059 202.71054639 44.625 194.8125 C29.94849798 186.66162388 22.58644594 173.56447204 18.0078125 158.01953125 C14.77980257 143.68000114 14.71614505 128.94389159 14.72560501 114.32552719 C14.72658803 110.96748159 14.71342458 107.60974088 14.69662476 104.2517395 C14.65086665 94.7184677 14.62575274 85.18523376 14.61914062 75.65185547 C14.61409283 69.78244768 14.5896932 63.91336748 14.55381393 58.0440712 C14.54410627 55.8300283 14.5416338 53.61593988 14.54698563 51.40188217 C15.0068623 27.41890333 15.0068623 27.41890333 4 7 C2.824375 5.8553125 2.824375 5.8553125 1.625 4.6875 C0 3 0 3 0 0 Z " fill="#E5E1D5" transform="translate(541,799)"/>
<path d="M0 0 C17.96136509 19.03168852 25.25 44.07664404 25.25 69.8125 C-25.24 69.8125 -75.73 69.8125 -127.75 69.8125 C-125.45848228 97.31071264 -122.64962004 123.19850328 -101.75 142.8125 C-86.79884058 154.55342549 -70.01672659 155.74079215 -51.75 154.8125 C-37.22522549 152.99882445 -23.53029117 145.05793296 -14.2734375 133.80078125 C-6.73586926 123.35154367 -1.95220786 111.93425345 2.25 99.8125 C9.84 99.8125 17.43 99.8125 25.25 99.8125 C22.83151679 119.16036567 14.51414602 138.37431469 1.25 152.8125 C0.51394531 153.64007812 -0.22210937 154.46765625 -0.98046875 155.3203125 C-18.40321797 173.90836794 -42.62128094 181.77550765 -67.5703125 183 C-92.3387466 183.41366905 -115.14796404 177.04629199 -134.75 161.8125 C-135.33523438 161.39097656 -135.92046875 160.96945312 -136.5234375 160.53515625 C-154.08777951 146.97020667 -164.38111531 122.7715087 -167.40625 101.3046875 C-170.80757908 66.75027621 -166.34267339 34.96597496 -144.375 7.125 C-127.62021848 -12.72730416 -103.98444248 -23.4000566 -78.375 -26 C-48.87968461 -27.46925606 -21.91053665 -20.37564792 0 0 Z M-108.84375 10.3984375 C-117.98798311 21.97863435 -122.88371015 35.48105074 -125.75 49.8125 C-89.45 49.8125 -53.15 49.8125 -15.75 49.8125 C-17.26120378 33.18925838 -21.93275277 17.25270721 -34.6015625 5.5546875 C-56.80989997 -12.45425525 -89.15559081 -10.50005934 -108.84375 10.3984375 Z " fill="#E5E1D5" transform="translate(844.75,435.1875)"/>
<path d="M0 0 C0.91136719 0.77859375 1.82273437 1.5571875 2.76171875 2.359375 C3.43589844 2.93171875 4.11007812 3.5040625 4.8046875 4.09375 C22.09217391 20.07577405 31.64601087 45.80589627 32.96655273 68.94921875 C33.06511942 72.81764768 33.0906276 76.67724021 33.07421875 80.546875 C33.07239594 81.2284668 33.07057312 81.91005859 33.06869507 82.61230469 C33.02124364 93.16228832 32.48417975 103.13085754 29.76171875 113.359375 C29.26865234 115.215625 29.26865234 115.215625 28.765625 117.109375 C21.23557327 142.12269562 5.75853923 161.79195156 -17.23828125 174.359375 C-44.81315405 188.17865305 -77.60311718 189.13851226 -106.85546875 180.26171875 C-119.20692063 175.89279992 -130.44624045 169.02020531 -140.23828125 160.359375 C-140.84929688 159.83085938 -141.4603125 159.30234375 -142.08984375 158.7578125 C-162.15900527 140.1548911 -169.9095709 112.03389454 -171.11279297 85.62670898 C-172.04092266 55.99210465 -164.06304265 27.75539385 -143.56640625 5.765625 C-142.798125 4.9715625 -142.02984375 4.1775 -141.23828125 3.359375 C-140.573125 2.6684375 -139.90796875 1.9775 -139.22265625 1.265625 C-103.49232593 -33.10095225 -36.98383406 -30.50465859 0 0 Z M-89.23828125 0.359375 C-90.07230469 0.68808594 -90.90632812 1.01679687 -91.765625 1.35546875 C-106.81158303 8.05544082 -116.45728636 21.50113401 -122.48339844 36.35351562 C-133.58277164 65.8465461 -132.30168536 103.84934899 -119.640625 132.51953125 C-112.34988849 147.2837804 -102.07836718 157.84382666 -86.55078125 163.671875 C-71.11436304 168.40782359 -55.47088046 166.79195459 -41.23828125 159.359375 C-25.39205798 149.40469628 -16.86158591 133.7264513 -12.02734375 116.12890625 C-9.76590846 105.3255149 -8.89132076 94.93527543 -8.92260742 83.93164062 C-8.92575878 81.6258162 -8.90223886 79.32129138 -8.87695312 77.015625 C-8.77828206 53.96158415 -13.56494343 29.86829933 -29.8828125 12.6484375 C-40.89068351 1.95090448 -52.69541625 -3.05432082 -68.05078125 -2.953125 C-68.9329834 -2.94821045 -69.81518555 -2.9432959 -70.72412109 -2.93823242 C-77.27962349 -2.82050144 -83.11987729 -2.1303215 -89.23828125 0.359375 Z " fill="#E5E1D5" transform="translate(790.23828125,1198.640625)"/>
<path d="M0 0 C23.43 0 46.86 0 71 0 C69 4 69 4 66.875 6.625 C62.53842727 14.43083092 65.46387128 22.53859037 67.72412109 30.67895508 C70.01289244 38.6005377 72.81300922 46.35456341 75.5625 54.125 C76.2111506 55.97108796 76.85949851 57.8172823 77.50756836 59.66357422 C84.86727401 80.59042241 92.38361216 101.4620122 99.89234924 122.33572388 C102.9625276 130.87846819 105.99365581 139.43460263 109 148 C110.76766625 145.34850063 111.71193656 143.3213692 112.76147461 140.35986328 C113.10109222 139.4080719 113.44070984 138.45628052 113.7906189 137.47564697 C114.1574881 136.4343866 114.5243573 135.39312622 114.90234375 134.3203125 C115.29225494 133.22458923 115.68216614 132.12886597 116.08389282 130.99993896 C117.37242107 127.37636336 118.65514011 123.75076272 119.9375 120.125 C121.5146822 115.67771023 123.09332628 111.23094087 124.67256737 106.78438187 C125.13767817 105.47449153 125.60259272 104.16453149 126.06731606 102.85450363 C129.48654931 93.21630078 132.9502179 83.59533623 136.4453125 73.984375 C137.73650116 70.42346689 139.02711975 66.86235257 140.31765747 63.3012085 C141.13997896 61.0379143 141.96534208 58.77572263 142.79391479 56.51470947 C152.78291169 32.58770061 152.78291169 32.58770061 151 7.7578125 C149.52363641 5.16264213 147.41157967 3.69462355 145 2 C145 1.34 145 0.68 145 0 C163.48 0 181.96 0 201 0 C198.98015456 4.03969089 197.15545026 5.84454974 194 9 C189.09189711 14.73328506 185.35371836 20.55511401 182.2109375 27.40234375 C181.79113617 28.30170151 181.37133484 29.20105927 180.93881226 30.12767029 C175.62433771 41.72007837 171.14496826 53.64438103 166.625 65.5625 C165.66360963 68.07780375 164.70149807 70.59281834 163.73828125 73.10742188 C161.77062461 78.24717461 159.80787322 83.38877187 157.84863281 88.53173828 C155.21172171 95.45201142 152.55873308 102.36602895 149.8984375 109.27734375 C149.49096786 110.33599136 149.08349823 111.39463898 148.66368103 112.48536682 C147.84803059 114.6040462 147.032271 116.72268356 146.21640015 118.84127808 C144.17844634 124.13339299 142.14173609 129.42598597 140.10546875 134.71875 C139.69696182 135.7803685 139.2884549 136.841987 138.86756897 137.93577576 C136.372265 144.42327523 133.88370668 150.91332855 131.40043449 157.40544128 C129.42964932 162.55720761 127.45478397 167.70739938 125.4774189 172.85664368 C124.29379117 175.93956433 123.11282072 179.02343663 121.93579102 182.10888672 C97.99134008 244.86437427 97.99134008 244.86437427 78 267 C77.15695312 267.93714844 76.31390625 268.87429688 75.4453125 269.83984375 C62.46067478 283.55839577 46.90249539 291.14177092 28 292 C24.7224935 292.03788243 21.46182609 291.9556064 18.1875 291.8125 C17.42373047 291.78260986 16.65996094 291.75271973 15.87304688 291.72192383 C9.63697855 291.33720514 5.29724747 289.88917424 -1 288 C-1 276.78 -1 265.56 -1 254 C9 256 9 256 11.8984375 256.60546875 C28.46888997 258.71329709 44.87366005 258.41235859 58.5703125 248.01953125 C67.73724463 240.40007159 73.9622871 232.12186991 79.89111328 221.89941406 C80.89829309 220.17421395 81.94510119 218.47230219 82.99609375 216.7734375 C83.55425781 215.83757812 84.11242188 214.90171875 84.6875 213.9375 C85.16574219 213.14214844 85.64398437 212.34679688 86.13671875 211.52734375 C88.32752408 205.1135381 84.78042274 198.26880268 82.4140625 192.3203125 C82.04556686 191.37622528 81.67707123 190.43213806 81.29740906 189.45944214 C80.08013846 186.34522354 78.85251887 183.23519167 77.625 180.125 C76.76508324 177.92999522 75.90596546 175.73467728 75.04760742 173.5390625 C73.26087269 168.97047322 71.4706892 164.40325734 69.67822266 159.83691406 C65.92055387 150.25544369 62.20928117 140.6560582 58.49578857 131.05740356 C50.58818207 110.6255792 42.6411665 90.20912142 34.6567688 69.80718994 C32.71617952 64.84447587 30.79276591 59.87541766 28.87890625 54.90234375 C19.68222244 26.85246316 19.68222244 26.85246316 1.76953125 4.4375 C1.18558594 3.963125 0.60164063 3.48875 0 3 C0 2.01 0 1.02 0 0 Z " fill="#E5E1D5" transform="translate(1808,1183)"/>
<path d="M0 0 C0 26.4 0 52.8 0 80 C21.12 80 42.24 80 64 80 C64 86.6 64 93.2 64 100 C42.88 100 21.76 100 0 100 C0.12678382 121.88246933 0.12678382 121.88246933 0.27233124 143.76479149 C0.32762103 151.5939848 0.38010424 159.42316304 0.421875 167.25244141 C0.4549691 173.45369396 0.49489431 179.65485987 0.54279006 185.8560164 C0.56788337 189.13498603 0.58869415 192.41388924 0.60334396 195.6929245 C0.62033835 199.36669669 0.64940471 203.04019679 0.68115234 206.71386719 C0.68331253 207.78346176 0.68547272 208.85305634 0.68769836 209.95506287 C0.8075814 220.88485943 1.35060081 234.34626318 8.7578125 243.0703125 C16.5548847 250.37815664 23.68796977 251.58880506 34.24609375 251.34765625 C46.62510027 250.2012134 56.30879702 243.59585369 64.2109375 234.32421875 C66.39217318 231.49051738 68.25200519 228.55496972 69.9921875 225.43359375 C70.32476562 224.96050781 70.65734375 224.48742187 71 224 C71.66 224 72.32 224 73 224 C77.78387206 237.13481248 77.78387206 237.13481248 76.09375 243.3125 C74.30199231 246.49033439 72.32544132 249.18881682 70 252 C69.195625 253.01964844 68.39125 254.03929687 67.5625 255.08984375 C56.17638569 268.86518257 40.77396648 276.98890553 22.99462891 278.79248047 C6.28147109 280.00761091 -10.88213426 277.15997533 -24 266 C-37.98508976 251.60954532 -41.17374924 232.95306036 -41.11352539 213.63891602 C-41.11367142 212.40894394 -41.11381744 211.17897186 -41.1139679 209.91172791 C-41.11339264 206.55685308 -41.10839437 203.20204059 -41.10139394 199.84717679 C-41.09512175 196.33447534 -41.09455355 192.82177296 -41.09336853 189.30906677 C-41.09026658 182.66525649 -41.08206856 176.02146275 -41.07201904 169.37765974 C-41.06082255 161.81053364 -41.05533855 154.24340674 -41.05032361 146.67627442 C-41.03988496 131.11750508 -41.02155366 115.55875852 -41 100 C-54.53 100 -68.06 100 -82 100 C-82 93.4 -82 86.8 -82 80 C-68.47 80 -54.94 80 -41 80 C-41.15082031 76.36226563 -41.30164063 72.72453125 -41.45703125 68.9765625 C-41.55859538 65.42869788 -41.63742189 61.88099881 -41.71411133 58.33251953 C-41.77924842 55.87799893 -41.86779226 53.42397822 -41.98071289 50.97119141 C-42.94654768 29.44312728 -42.94654768 29.44312728 -38.28125 24.28466797 C-35.14066648 21.59263169 -31.70006334 19.81768124 -28 18 C-26.72830213 17.07847128 -25.47742496 16.12557476 -24.2734375 15.1171875 C-21.19120088 12.73281577 -18.0975606 10.36443287 -15 8 C-13.97003906 7.2059375 -12.94007813 6.411875 -11.87890625 5.59375 C-10.90824219 4.8615625 -9.93757813 4.129375 -8.9375 3.375 C-7.65166016 2.39660156 -7.65166016 2.39660156 -6.33984375 1.3984375 C-4 0 -4 0 0 0 Z " fill="#E5E1D5" transform="translate(382,336)"/>
<path d="M0 0 C1.44699678 3.9458157 0.64861051 7.63245965 0.07966614 11.67514038 C-1.39227736 23.50177237 -1.28854691 35.29718878 -1.2746582 47.19775391 C-1.27901463 49.68673352 -1.28420085 52.17571179 -1.29014587 54.66468811 C-1.30206816 60.67946633 -1.30470017 66.69417892 -1.30234561 72.70896293 C-1.30055123 77.60304222 -1.30233584 82.49710807 -1.30657005 87.39118576 C-1.30716524 88.09184449 -1.30776043 88.79250322 -1.30837366 89.51439404 C-1.30958559 90.93842973 -1.31079972 92.36246541 -1.31201603 93.78650109 C-1.32284957 107.08905001 -1.32074833 120.39157347 -1.31463119 133.69412379 C-1.30945904 145.82957236 -1.32073281 157.96494074 -1.33972941 170.10037346 C-1.35915639 182.60800539 -1.36735574 195.11559946 -1.36360615 207.62324655 C-1.36170233 214.62670244 -1.36410175 221.63009001 -1.37832069 228.63353348 C-1.39155608 235.21812707 -1.38890899 241.80258722 -1.37590981 248.38718987 C-1.37355552 250.79287077 -1.37623714 253.19856313 -1.38453293 255.60423088 C-2.0752547 280.73279422 -2.0752547 280.73279422 8 303 C9.92254998 304.79612379 11.92855235 306.37243399 14 308 C14 308.99 14 309.98 14 311 C-10.42 311 -34.84 311 -60 311 C-60 310.01 -60 309.02 -60 308 C-58.390625 306.45703125 -58.390625 306.45703125 -56.25 304.8125 C-48.66100228 298.37456719 -46.26339713 289.69837466 -45 280 C-44.44032261 272.12848827 -44.58915897 264.21823792 -44.61181641 256.33203125 C-44.60774584 253.9472937 -44.60240124 251.56255805 -44.59588623 249.17782593 C-44.58226469 242.73160002 -44.58748998 236.28551891 -44.59702349 229.83929062 C-44.60237638 225.80631721 -44.60134371 221.77336208 -44.5985527 217.74038696 C-44.598093 217.06871359 -44.59763331 216.39704021 -44.59715968 215.7050131 C-44.5962004 214.34007954 -44.59522776 212.97514599 -44.5942419 211.61021245 C-44.5857085 198.84235643 -44.59548984 186.07456527 -44.611643 173.3067199 C-44.62504433 162.37599697 -44.62271565 151.44536965 -44.60888672 140.51464844 C-44.59279455 127.78924202 -44.58653228 115.0638923 -44.59572351 102.33847713 C-44.59667905 100.97885578 -44.59762217 99.61923441 -44.5985527 98.25961304 C-44.59924694 97.25644483 -44.59924694 97.25644483 -44.59995521 96.23301059 C-44.60253422 91.54363913 -44.59804928 86.85431482 -44.59111404 82.16494751 C-44.58241435 75.84141141 -44.58852117 69.51805493 -44.60579681 63.19453812 C-44.60974562 60.88113324 -44.60865532 58.56771312 -44.60200882 56.25431442 C-44.03582543 34.36810576 -44.03582543 34.36810576 -53 15 C-53.928125 14.071875 -54.85625 13.14375 -55.8125 12.1875 C-56.534375 11.465625 -57.25625 10.74375 -58 10 C-58 9.01 -58 8.02 -58 7 C-51.28773441 5.56046118 -44.61248373 4.48440334 -37.79296875 3.7109375 C-36.40033562 3.54871201 -36.40033562 3.54871201 -34.97956848 3.38320923 C-33.03616937 3.15777939 -31.09253597 2.93436083 -29.14868164 2.71289062 C-26.17725403 2.37383087 -23.20677514 2.0272227 -20.23632812 1.6796875 C-18.33859305 1.4604922 -16.44080824 1.24172696 -14.54296875 1.0234375 C-13.65957321 0.92034271 -12.77617767 0.81724792 -11.86601257 0.71102905 C-7.89015255 0.2614808 -4.00935176 -0.13472491 0 0 Z " fill="#E5E1D5" transform="translate(914,683)"/>
<path d="M0 0 C0.79493394 0.00151345 1.58986788 0.00302691 2.40889072 0.00458622 C3.00666293 0.00653209 3.60443514 0.00847795 4.22032166 0.01048279 C4.2236318 0.81609933 4.22694195 1.62171587 4.2303524 2.45174503 C4.31179097 22.11001648 4.4039506 41.76821138 4.50784874 61.4263773 C4.55783939 70.93315608 4.60428314 80.43992683 4.64219666 89.94676208 C4.67527495 98.23885889 4.71519197 106.5308907 4.76311171 114.82291549 C4.7882203 119.20806715 4.81004651 123.59317656 4.82366562 127.9783802 C4.83662952 132.1176753 4.85883328 136.25682433 4.88770485 140.39603806 C4.89667005 141.90391254 4.90244448 143.41181047 4.90453529 144.91971016 C4.91986739 170.10740923 4.91986739 170.10740923 16.63438416 191.54954529 C18.17298643 193.10226282 18.17298643 193.10226282 20.22032166 194.01048279 C20.22032166 195.00048279 20.22032166 195.99048279 20.22032166 197.01048279 C-3.86967834 197.01048279 -27.95967834 197.01048279 -52.77967834 197.01048279 C-52.28467834 195.03048279 -52.28467834 195.03048279 -51.77967834 193.01048279 C-50.45500088 192.32677829 -49.12104202 191.66084093 -47.77967834 191.01048279 C-46.69536741 189.26180796 -46.69536741 189.26180796 -45.77967834 187.01048279 C-44.82061584 185.61829529 -44.82061584 185.61829529 -43.84217834 184.19798279 C-36.71045201 171.4620487 -38.22491607 154.37165051 -38.09217834 140.32298279 C-38.06041987 137.8983336 -38.02809803 135.47369174 -37.99525452 133.04905701 C-37.90417902 125.75241646 -37.8443624 118.45573853 -37.79457092 111.15872955 C-37.77935824 108.96430805 -37.76301686 106.76989709 -37.74647522 104.57548523 C-37.67312004 94.67320466 -37.62621134 84.77105337 -37.59934616 74.86854172 C-37.59225008 72.65783215 -37.5819498 70.4471582 -37.57084656 68.23646545 C-35.55082911 37.83647942 -35.55082911 37.83647942 -45.81874084 10.70579529 C-47.23320025 9.30133206 -48.68169804 7.92985211 -50.17030334 6.60423279 C-50.96694397 5.81532654 -50.96694397 5.81532654 -51.77967834 5.01048279 C-51.77967834 4.35048279 -51.77967834 3.69048279 -51.77967834 3.01048279 C-46.1109115 2.24114727 -40.49584638 1.75662815 -34.78358459 1.47532654 C-33.95060349 1.4323494 -33.11762238 1.38937225 -32.25939941 1.34509277 C-30.50898857 1.25548759 -28.7585032 1.1673274 -27.00794983 1.08055115 C-24.35286615 0.94851429 -21.69811411 0.81089438 -19.04335022 0.67259216 C-17.33177859 0.58567004 -15.62019052 0.49907085 -13.90858459 0.41282654 C-13.12705521 0.37221603 -12.34552582 0.33160553 -11.54031372 0.2897644 C-7.69021529 0.10186132 -3.85507145 -0.00957555 0 0 Z " fill="#E5E1D5" transform="translate(818.7796783447266,796.9895172119141)"/>
<path d="M0 0 C0.79479074 0.00151345 1.58958149 0.00302691 2.4084568 0.00458622 C3.30483895 0.00750502 3.30483895 0.00750502 4.21932983 0.01048279 C4.22263998 0.80394828 4.22595013 1.59741377 4.22936058 2.41492367 C4.31085258 21.79016037 4.40302895 41.16531987 4.50685692 60.5404501 C4.55681567 69.91040886 4.60325937 79.28035961 4.64120483 88.65037537 C4.67431676 96.82456442 4.71425137 104.99868798 4.76211989 113.17280442 C4.78719566 117.49430356 4.80903088 121.81576032 4.8226738 126.13731194 C4.83566835 130.21915941 4.85790247 134.30086009 4.88671303 138.38262558 C4.89565501 139.86708407 4.90144695 141.3515661 4.90354347 142.83605003 C4.91656026 150.6649089 5.23691644 158.37035187 6.12988281 166.14904785 C6.20922385 166.84556408 6.28856488 167.54208032 6.37031019 168.2597031 C7.53929215 177.58261379 10.16897167 185.56175519 17.21932983 192.01048279 C18.70432983 193.00048279 18.70432983 193.00048279 20.21932983 194.01048279 C20.21932983 195.00048279 20.21932983 195.99048279 20.21932983 197.01048279 C-3.87067017 197.01048279 -27.96067017 197.01048279 -52.78067017 197.01048279 C-51.60937284 192.32529348 -50.13583629 191.36564891 -46.78067017 188.01048279 C-37.66080805 177.0506485 -38.28189017 161.45479499 -38.10488892 147.94798279 C-38.07249978 146.20040998 -38.03933269 144.45285144 -38.00544739 142.70530701 C-37.90472208 137.14059689 -37.83746248 131.5757984 -37.78067017 126.01048279 C-37.77124641 125.08942749 -37.76182266 124.16837219 -37.75211334 123.21940613 C-37.63375866 111.04673571 -37.59412727 98.87459749 -37.59536743 86.70140076 C-37.59547092 81.8949661 -37.58155817 77.08867302 -37.56459522 72.28227234 C-37.55341271 68.49177914 -37.55144975 64.70132037 -37.55197716 60.91081238 C-37.55081655 59.1377359 -37.54650648 57.36465794 -37.53864479 55.59159851 C-36.65741657 31.85376066 -36.65741657 31.85376066 -45.59707642 10.95579529 C-46.82520984 9.75991588 -48.08718539 8.59713889 -49.39004517 7.48313904 C-50.78067017 6.01048279 -50.78067017 6.01048279 -50.78067017 3.01048279 C-45.47757326 2.17002681 -40.24284048 1.73758338 -34.88223267 1.47532654 C-34.04783661 1.4323494 -33.21344055 1.38937225 -32.35375977 1.34509277 C-30.59737829 1.2553705 -28.8409161 1.16721591 -27.0843811 1.08055115 C-24.4204159 0.94871255 -21.75679938 0.81103596 -19.09317017 0.67259216 C-17.37704197 0.58565484 -15.66089661 0.49905529 -13.94473267 0.41282654 C-13.16006622 0.37221603 -12.37539978 0.33160553 -11.56695557 0.2897644 C-7.70800357 0.10223168 -3.8638944 -0.00959972 0 0 Z " fill="#E5E1D5" transform="translate(1214.7806701660156,796.9895172119141)"/>
<path d="M0 0 C14.19 0 28.38 0 43 0 C43 15.18 43 30.36 43 46 C28.81 46 14.62 46 0 46 C0 30.82 0 15.64 0 0 Z " fill="#E5E1D5" transform="translate(1177,706)"/>
<path d="M0 0 C14.19 0 28.38 0 43 0 C43 15.18 43 30.36 43 46 C28.81 46 14.62 46 0 46 C0 30.82 0 15.64 0 0 Z " fill="#E5E1D5" transform="translate(781,706)"/>
</svg>
